STARTFONT 2.1
COMMENT
COMMENT Converted from OpenType font "truongsa_regular.ttf" by "otf2bdf 3.0".
COMMENT
FONT -FreeType-VPS Truong Sa Light Hoa-Medium-R-Normal--39-280-100-100-P-197-ISO10646-1
SIZE 28 100 100
FONTBOUNDINGBOX 37 53 -1 -9
STARTPROPERTIES 19
FOUNDRY "FreeType"
FAMILY_NAME "VPS Truong Sa Light Hoa"
WEIGHT_NAME "Medium"
SLANT "R"
SETWIDTH_NAME "Normal"
ADD_STYLE_NAME ""
PIXEL_SIZE 39
POINT_SIZE 280
RESOLUTION_X 100
RESOLUTION_Y 100
SPACING "P"
AVERAGE_WIDTH 197
CHARSET_REGISTRY "ISO10646"
CHARSET_ENCODING "1"
FONT_ASCENT 37
FONT_DESCENT 9
COPYRIGHT "VPS Font"
_OTF_FONTFILE "truongsa_regular.ttf"
_OTF_PSNAME "VPS Truong Sa Light Hoa"
ENDPROPERTIES
CHARS 270
STARTCHAR 0002
ENCODING 2
SWIDTH 642 0
DWIDTH 25 0
BBX 26 35 0 -6
BITMAP
00080000
001C0000
001E0000
003E0000
003F0000
00770000
00678000
00E78000
00E3C000
01C3C000
01C1E000
0181E000
0380E000
0300F000
0700F000
07007800
06007800
0FFFF800
0FFFFC00
1C003C00
1C001C00
18001E00
38001E00
38000E00
38000F00
78000F00
78000F00
FC001F80
FC003FC0
00000000
00000000
00380000
007C0000
003C0000
00380000
ENDCHAR
STARTCHAR 0003
ENCODING 3
SWIDTH 642 0
DWIDTH 25 0
BBX 26 43 0 -6
BITMAP
001E0000
003E0000
003F0000
00638000
00C18000
00804000
00000000
00000000
00080000
001C0000
001E0000
003E0000
003F0000
00770000
00678000
00E78000
00E3C000
01C3C000
01C1E000
0181E000
0380E000
0300F000
0700F000
07007800
06007800
0FFFF800
0FFFFC00
1C003C00
1C001C00
18001E00
38001E00
38000E00
38000F00
78000F00
78000F00
FC001F80
FC003FC0
00000000
00000000
00380000
007C0000
003C0000
00380000
ENDCHAR
STARTCHAR 0004
ENCODING 4
SWIDTH 642 0
DWIDTH 25 0
BBX 26 41 0 -6
BITMAP
01008000
00C18000
00FF0000
007E0000
00000000
00000000
00080000
001C0000
001E0000
003E0000
003F0000
00770000
00678000
00E78000
00E3C000
01C3C000
01C1E000
0181E000
0380E000
0300F000
0700F000
07007800
06007800
0FFFF800
0FFFFC00
1C003C00
1C001C00
18001E00
38001E00
38000E00
38000F00
78000F00
78000F00
FC001F80
FC003FC0
00000000
00000000
00380000
007C0000
003C0000
00380000
ENDCHAR
STARTCHAR 0005
ENCODING 5
SWIDTH 591 0
DWIDTH 23 0
BBX 22 34 1 -6
BITMAP
FFFFF8
7FFFF8
3E0078
3C0018
3C0008
3C0000
3C0000
3C0000
3C0000
3C0000
3C0040
3C01C0
3FFFC0
3FFFC0
3C0040
3C0000
3C0000
3C0000
3C0000
3C0000
3C0000
3C0000
3C0000
3C0004
3C001C
3E007C
7FFFFC
FFFFFC
000000
000000
007000
00F800
007800
007000
ENDCHAR
STARTCHAR 0006
ENCODING 6
SWIDTH 591 0
DWIDTH 23 0
BBX 22 44 1 -7
BITMAP
003800
007C00
006E00
00C600
018300
010180
000000
000000
000000
FFFFF8
7FFFF8
3E0078
3C0018
3C0008
3C0000
3C0000
3C0000
3C0000
3C0000
3C0040
3C01C0
3FFFC0
3FFFC0
3C0040
3C0000
3C0000
3C0000
3C0000
3C0000
3C0000
3C0000
3C0000
3C0004
3C001C
3E007C
7FFFFC
FFFFFC
000000
000000
001000
003C00
003C00
003C00
001800
ENDCHAR
STARTCHAR 0015
ENCODING 21
SWIDTH 694 0
DWIDTH 27 0
BBX 28 42 1 -7
BITMAP
000001E0
00000310
00000010
00000010
00000030
000000E0
00000100
FF003F80
FF003F80
3C000F00
3C000E00
3C000600
38000700
38000700
38000700
38000700
38000700
38000700
38000700
38000700
38000700
78000700
78000700
78000700
38000700
38000700
38000700
38000600
3C000E00
3C000E00
1C001C00
1E001C00
0F807800
07FFF000
03FFE000
007F0000
00000000
00000000
001C0000
001E0000
001E0000
000C0000
ENDCHAR
STARTCHAR 0019
ENCODING 25
SWIDTH 642 0
DWIDTH 25 0
BBX 27 34 -1 -6
BITMAP
FF001FE0
7F000FC0
3E000780
1E000700
0E000700
0F000E00
07800C00
07801C00
03C01800
01E03000
01E07000
00F06000
0078C000
003DC000
003F8000
001F0000
000E0000
000E0000
000E0000
000E0000
000E0000
000E0000
000E0000
000E0000
000F0000
000F0000
003F8000
003FC000
00000000
00000000
00060000
000F0000
000F0000
000F0000
ENDCHAR
STARTCHAR 001C
ENCODING 28
SWIDTH 642 0
DWIDTH 25 0
BBX 26 42 0 0
BITMAP
00384000
00FFC000
00FF8000
01800000
00000000
001E0000
003E0000
003F0000
00638000
00C18000
00804000
00000000
00000000
00080000
001C0000
001E0000
003E0000
003F0000
00770000
00678000
00E78000
00E3C000
01C3C000
01C1E000
0181E000
0380E000
0300F000
0700F000
07007800
06007800
0FFFF800
0FFFFC00
1C003C00
1C001C00
18001E00
38001E00
38000E00
38000F00
78000F00
78000F00
FC001F80
FC003FC0
ENDCHAR
STARTCHAR 001D
ENCODING 29
SWIDTH 694 0
DWIDTH 27 0
BBX 28 44 1 -1
BITMAP
00002000
003E2000
007FE000
0047C000
00400000
00000000
00000000
00000000
000001E0
00000310
00000010
00000010
00000030
000000E0
00000100
FF003F80
FF003F80
3C000F00
3C000E00
3C000600
38000700
38000700
38000700
38000700
38000700
38000700
38000700
38000700
38000700
78000700
78000700
78000700
38000700
38000700
38000700
38000600
3C000E00
3C000E00
1C001C00
1E001C00
0F807800
07FFF000
03FFE000
007F0000
ENDCHAR
STARTCHAR 0020
ENCODING 32
SWIDTH 257 0
DWIDTH 10 0
BBX 0 0 0 0
BITMAP
ENDCHAR
STARTCHAR 0021
ENCODING 33
SWIDTH 257 0
DWIDTH 10 0
BBX 4 29 3 -1
BITMAP
60
F0
F0
F0
F0
F0
F0
F0
F0
70
70
60
60
60
60
60
60
60
60
60
60
00
00
00
00
60
F0
F0
F0
ENDCHAR
STARTCHAR 0022
ENCODING 34
SWIDTH 308 0
DWIDTH 12 0
BBX 9 12 2 16
BITMAP
C100
E380
E380
E380
E380
E380
C180
C100
4100
4100
4100
4100
ENDCHAR
STARTCHAR 0023
ENCODING 35
SWIDTH 745 0
DWIDTH 29 0
BBX 26 28 2 0
BITMAP
00060600
000E0E00
000E0C00
000C0C00
001C1C00
00181800
00181800
00383800
00303000
1FFFFFC0
1FFFFFC0
3FFFFF80
00E0E000
00E0E000
00C0C000
01C1C000
01C1C000
7FFFFE00
FFFFFE00
03030000
03030000
07070000
06060000
060E0000
0E0E0000
0C0C0000
1C1C0000
1C1C0000
ENDCHAR
STARTCHAR 0024
ENCODING 36
SWIDTH 540 0
DWIDTH 21 0
BBX 18 36 2 -5
BITMAP
00C000
00C000
00C000
07F800
1FFC00
38C600
70C700
60C700
60C300
60C000
70C000
70C000
78C000
3EC000
1FC000
0FF000
03FC00
00FE00
00FF00
00CF80
00C780
00C380
00C1C0
00C180
C0C180
E0C180
E0C380
70C700
38CE00
1FFC00
07F000
00C000
00C000
00C000
00C000
008000
ENDCHAR
STARTCHAR 0025
ENCODING 37
SWIDTH 848 0
DWIDTH 33 0
BBX 29 30 3 -1
BITMAP
03000600
1FE00E00
707E7C00
703FEC00
E0381800
E0381800
E0383000
E0383000
E0386000
E0384000
E038C000
70718000
38E18000
1FC30000
00030000
00060000
00041F80
000C70E0
0008E070
0018E030
0030E038
0031C038
0061C038
0061C038
00C1C038
0080E038
0180E070
030070E0
03003FC0
02000000
ENDCHAR
STARTCHAR 0026
ENCODING 38
SWIDTH 745 0
DWIDTH 29 0
BBX 28 30 1 -1
BITMAP
00380000
01FE0000
07870000
07038000
0E018000
0E018000
0E018000
0E018000
0E038000
0F070000
070E0000
07BC0000
03F80000
03E03FC0
07E01FC0
0EF00F00
1CF00600
38780E00
703C0C00
E01E1C00
E00F1800
E00FB000
E007F000
E003E000
F001F000
7803F800
7C0F7E00
3FFE3FF0
1FF81FE0
03E00000
ENDCHAR
STARTCHAR 0027
ENCODING 39
SWIDTH 154 0
DWIDTH 6 0
BBX 3 12 2 16
BITMAP
C0
E0
E0
E0
E0
E0
C0
C0
40
40
40
40
ENDCHAR
STARTCHAR 0028
ENCODING 40
SWIDTH 308 0
DWIDTH 12 0
BBX 7 35 3 -6
BITMAP
02
06
0C
0C
1C
18
38
38
30
70
70
70
60
60
E0
E0
E0
E0
E0
E0
E0
60
60
70
70
70
70
30
38
38
18
1C
0C
0E
06
ENDCHAR
STARTCHAR 0029
ENCODING 41
SWIDTH 308 0
DWIDTH 12 0
BBX 6 35 3 -6
BITMAP
80
C0
E0
60
70
70
30
38
38
18
1C
1C
1C
1C
0C
0C
0C
0C
0C
0C
0C
1C
1C
1C
1C
1C
18
38
38
30
70
60
60
C0
C0
ENDCHAR
STARTCHAR 002A
ENCODING 42
SWIDTH 488 0
DWIDTH 19 0
BBX 15 16 2 13
BITMAP
0100
0380
0380
6384
F11E
F93E
7D7C
0380
0380
3D78
793C
F11E
638C
0380
0380
0380
ENDCHAR
STARTCHAR 002B
ENCODING 43
SWIDTH 822 0
DWIDTH 32 0
BBX 23 23 5 0
BITMAP
003000
003000
003000
003000
003000
003000
003000
003000
003000
003000
FFFFFE
FFFFFE
FFFFFE
003000
003000
003000
003000
003000
003000
003000
003000
003000
003000
ENDCHAR
STARTCHAR 002C
ENCODING 44
SWIDTH 257 0
DWIDTH 10 0
BBX 5 11 3 -7
BITMAP
60
F0
F0
F8
78
10
10
30
20
40
80
ENDCHAR
STARTCHAR 002D
ENCODING 45
SWIDTH 308 0
DWIDTH 12 0
BBX 9 2 2 8
BITMAP
FF80
FF80
ENDCHAR
STARTCHAR 002E
ENCODING 46
SWIDTH 257 0
DWIDTH 10 0
BBX 4 5 3 -1
BITMAP
60
F0
F0
70
20
ENDCHAR
STARTCHAR 002F
ENCODING 47
SWIDTH 257 0
DWIDTH 10 0
BBX 11 33 -1 -4
BITMAP
0020
0020
0060
0060
0040
00C0
00C0
0080
0180
0180
0100
0300
0300
0300
0200
0600
0600
0400
0C00
0C00
0800
1800
1800
1000
3000
3000
2000
6000
6000
6000
4000
C000
8000
ENDCHAR
STARTCHAR 0030
ENCODING 48
SWIDTH 540 0
DWIDTH 21 0
BBX 19 30 1 -1
BITMAP
006000
07FC00
0F1E00
1C0700
3C0380
380380
7801C0
7001C0
7001C0
7001E0
F001E0
F001E0
F001E0
F001E0
F001E0
F001E0
F001E0
F001E0
F001E0
F001E0
7001E0
7001C0
7001C0
7801C0
380380
3C0380
1C0700
0F9E00
07FC00
00C000
ENDCHAR
STARTCHAR 0031
ENCODING 49
SWIDTH 540 0
DWIDTH 21 0
BBX 15 28 3 1
BITMAP
01C0
03C0
7FC0
FFC0
03C0
03C0
01C0
01C0
01C0
01C0
01C0
01C0
01C0
01C0
01C0
01C0
01C0
01C0
01C0
01C0
01C0
01C0
01C0
03C0
03C0
07E0
7FFE
7FFE
ENDCHAR
STARTCHAR 0032
ENCODING 50
SWIDTH 540 0
DWIDTH 21 0
BBX 18 29 1 0
BITMAP
00E000
07FE00
1F1F00
3C0780
7003C0
7003C0
7001C0
7001C0
7803C0
7803C0
3003C0
000780
000F00
001F00
003E00
007C00
00F800
01E000
03C000
078000
0F0000
0E0000
1C0000
380040
7000C0
7001C0
FFFFC0
FFFF80
FFFF80
ENDCHAR
STARTCHAR 0033
ENCODING 51
SWIDTH 540 0
DWIDTH 21 0
BBX 19 30 0 -1
BITMAP
006000
07FE00
0F0F00
1C0780
3803C0
3803C0
3C01C0
3801C0
0003C0
0003C0
000380
000700
001E00
01F000
03FE00
000F80
0003C0
0001C0
0001E0
0001E0
0000E0
2000E0
7001E0
F001E0
F001E0
7003C0
780780
3E1F00
0FFC00
00E000
ENDCHAR
STARTCHAR 0034
ENCODING 52
SWIDTH 540 0
DWIDTH 21 0
BBX 21 29 0 0
BITMAP
000200
000F00
001F00
003F00
007700
00E700
01C700
018700
038700
070700
060700
0E0700
1C0700
1C0700
380700
380700
300700
700700
600700
FFFFF8
FFFFF8
3FFFE0
000700
000700
000700
000700
000700
001FC0
003FC0
ENDCHAR
STARTCHAR 0035
ENCODING 53
SWIDTH 540 0
DWIDTH 21 0
BBX 19 29 1 -1
BITMAP
1FFF80
1FFF00
3FFC00
380000
380000
380000
380000
380000
300000
300000
300000
37FE00
3FFF00
380780
3003C0
0003C0
0001E0
0001E0
0001E0
0001E0
0001E0
E001C0
E001C0
E003C0
F00780
700F00
3E3E00
1FFC00
00C000
ENDCHAR
STARTCHAR 0036
ENCODING 54
SWIDTH 540 0
DWIDTH 21 0
BBX 19 30 1 -1
BITMAP
000380
003F80
00FC00
01E000
038000
070000
0E0000
1C0000
3C0000
380000
780000
780000
71FE00
77FF80
FE0780
F803C0
F001E0
F001E0
F001E0
F000E0
F000E0
7000E0
7000E0
7801E0
3801C0
3C03C0
1E0780
0F9F00
07FE00
006000
ENDCHAR
STARTCHAR 0037
ENCODING 55
SWIDTH 540 0
DWIDTH 21 0
BBX 18 29 2 -1
BITMAP
7FFFC0
7FFFC0
FFFF80
E00180
E00380
C00300
000700
000600
000E00
000E00
001C00
001C00
001800
003800
003800
007000
007000
00F000
00E000
00E000
01E000
01C000
03C000
03C000
038000
078000
078000
070000
020000
ENDCHAR
STARTCHAR 0038
ENCODING 56
SWIDTH 540 0
DWIDTH 21 0
BBX 19 30 1 -1
BITMAP
00E000
07FE00
1E0F00
380380
3001C0
7001C0
7001C0
7001C0
7001C0
780380
3C0300
3F0E00
1FFC00
0FF800
03FE00
07FF00
1E1FC0
3807C0
7003E0
7001E0
E000E0
E000E0
E000E0
E000E0
E000E0
7001C0
780380
3E0F00
0FFC00
014000
ENDCHAR
STARTCHAR 0039
ENCODING 57
SWIDTH 540 0
DWIDTH 21 0
BBX 19 30 1 -1
BITMAP
00E000
07FC00
1F1F00
3C0780
780380
7003C0
7001C0
F001C0
F001E0
F001E0
F001E0
F001E0
F001E0
7801E0
7803E0
3E0FE0
1FFDE0
0FF1C0
0001C0
0003C0
000380
000780
000700
000E00
001E00
003C00
00F000
07E000
3F8000
100000
ENDCHAR
STARTCHAR 003A
ENCODING 58
SWIDTH 257 0
DWIDTH 10 0
BBX 4 18 3 -1
BITMAP
70
F0
F0
70
00
00
00
00
00
00
00
00
00
60
F0
F0
70
20
ENDCHAR
STARTCHAR 003B
ENCODING 59
SWIDTH 257 0
DWIDTH 10 0
BBX 5 24 3 -7
BITMAP
F0
F0
F0
E0
00
00
00
00
00
00
00
00
00
60
F0
F0
F8
78
10
10
30
20
40
80
ENDCHAR
STARTCHAR 003C
ENCODING 60
SWIDTH 822 0
DWIDTH 32 0
BBX 22 19 5 2
BITMAP
00001C
00007C
0003F0
000FC0
003E00
01F800
07E000
3F0000
FC0000
F00000
FC0000
1F8000
07E000
00FC00
003F00
000FC0
0001F8
00007C
00000C
ENDCHAR
STARTCHAR 003D
ENCODING 61
SWIDTH 822 0
DWIDTH 32 0
BBX 23 9 5 7
BITMAP
FFFFFE
FFFFFE
000000
000000
000000
000000
000000
FFFFFE
FFFFFE
ENDCHAR
STARTCHAR 003E
ENCODING 62
SWIDTH 822 0
DWIDTH 32 0
BBX 22 20 5 1
BITMAP
800000
E00000
FC0000
3F0000
0FC000
01F800
007E00
000FC0
0003F0
00007C
00001C
0000FC
0003F0
001F80
007E00
03F000
0FC000
3F0000
F80000
E00000
ENDCHAR
STARTCHAR 003F
ENCODING 63
SWIDTH 437 0
DWIDTH 17 0
BBX 15 30 1 -1
BITMAP
0380
1FF0
7078
F01C
E01C
F00C
E00E
000E
000E
000E
001C
001C
003C
00F8
01F0
07E0
0F00
0E00
0C00
0C00
0C00
0400
0000
0000
0000
0400
0F00
0F00
0E00
0400
ENDCHAR
STARTCHAR 0040
ENCODING 64
SWIDTH 977 0
DWIDTH 38 0
BBX 33 33 3 -5
BITMAP
0000E00000
000F8F8000
007000E000
00C0003000
0380000800
0600000400
0C00000200
1C00000200
1800000100
3001F1C100
7007098100
600E078080
601C078080
E038070080
C038070080
C070070100
C070070100
C0700E0100
C0F00E0100
C0E00E0200
C0601C0200
C0601C0400
C0602C0800
60304C1800
6019866000
300E018000
3000000000
1800000000
0C00000000
0700000800
0180003000
00F001C000
001FFE0000
ENDCHAR
STARTCHAR 0041
ENCODING 65
SWIDTH 642 0
DWIDTH 25 0
BBX 26 29 0 0
BITMAP
00080000
001C0000
001E0000
003E0000
003F0000
00770000
00678000
00E78000
00E3C000
01C3C000
01C1E000
0181E000
0380E000
0300F000
0700F000
07007800
06007800
0FFFF800
0FFFFC00
1C003C00
1C001C00
18001E00
38001E00
38000E00
38000F00
78000F00
78000F00
FC001F80
FC003FC0
ENDCHAR
STARTCHAR 0042
ENCODING 66
SWIDTH 642 0
DWIDTH 25 0
BBX 24 28 1 0
BITMAP
FFFFC0
7FFFF0
3E01F8
3C0078
3C003C
3C003C
3C003C
3C003C
3C0078
3C0078
3C01F0
3C07C0
3C3F00
3FFFE0
3FE1F8
3C007C
3C003E
3C001E
3C000F
3C000F
3C000F
3C000F
3C001E
3C001E
3C003E
3E01FC
7FFFF8
FFFFC0
ENDCHAR
STARTCHAR 0043
ENCODING 67
SWIDTH 694 0
DWIDTH 27 0
BBX 25 30 1 -1
BITMAP
000FC000
007FF800
01F0FE00
07C01F00
0F000F00
1E000700
1E000300
3C000300
3C000100
78000000
78000000
78000000
F8000000
F0000000
F0000000
F0000000
F0000000
F0000000
78000000
78000000
78000000
7C000000
3C000080
3E000180
1F000380
0F800700
07C01E00
03FFFC00
01FFF000
003F8000
ENDCHAR
STARTCHAR 0044
ENCODING 68
SWIDTH 720 0
DWIDTH 28 0
BBX 26 28 1 0
BITMAP
FFFF0000
7FFFE000
3E03F000
3C007C00
3C003E00
3C001E00
3C000F00
3C000780
3C000780
3C000780
3C000380
3C0003C0
3C0003C0
3C0003C0
3C0003C0
3C0003C0
3C0003C0
3C000780
3C000780
3C000780
3C000F80
3C000F00
3C001E00
3C003C00
3C007800
3E03F000
7FFFC000
FFFE0000
ENDCHAR
STARTCHAR 0045
ENCODING 69
SWIDTH 591 0
DWIDTH 23 0
BBX 22 28 1 0
BITMAP
FFFFF8
7FFFF8
3E0078
3C0018
3C0008
3C0000
3C0000
3C0000
3C0000
3C0000
3C0040
3C01C0
3FFFC0
3FFFC0
3C0040
3C0000
3C0000
3C0000
3C0000
3C0000
3C0000
3C0000
3C0000
3C0004
3C001C
3E007C
7FFFFC
FFFFFC
ENDCHAR
STARTCHAR 0046
ENCODING 70
SWIDTH 540 0
DWIDTH 21 0
BBX 21 28 1 0
BITMAP
FFFFF0
7FFFF0
3E00F8
3C0038
3C0018
3C0000
3C0000
3C0000
3C0000
3C0000
3C0000
3C0000
3C0FC0
3FFFC0
3FFFC0
3C00C0
3C0000
3C0000
3C0000
3C0000
3C0000
3C0000
3C0000
3C0000
3C0000
3C0000
FF0000
FF0000
ENDCHAR
STARTCHAR 0047
ENCODING 71
SWIDTH 771 0
DWIDTH 30 0
BBX 27 30 1 -1
BITMAP
0007E000
007FFC00
01F87F00
03E00F80
07800380
0F000380
1E000180
1E000080
3C000000
3C000000
78000000
78000000
78000000
F8000000
F0000000
F0007FC0
F0007FE0
F00001E0
780001C0
780001C0
780001C0
3C0001C0
3C0001C0
1E0001E0
1F0001E0
0F8003E0
07C007C0
03F83F00
00FFFC00
001FE000
ENDCHAR
STARTCHAR 0048
ENCODING 72
SWIDTH 745 0
DWIDTH 29 0
BBX 28 28 1 0
BITMAP
FF000FF0
7F000FE0
3C0003C0
3C0003C0
3C000380
3C000380
3C000380
3C000380
3C000380
3C000380
3C000380
3C000380
3FFFFF80
3FFFFF80
3C000380
3C000380
3C000380
3C000380
3C000380
3C000380
3C000380
3C000380
3C000380
3C000380
3C0003C0
3C0003C0
7F000FE0
FF000FF0
ENDCHAR
STARTCHAR 0049
ENCODING 73
SWIDTH 257 0
DWIDTH 10 0
BBX 8 28 1 0
BITMAP
FF
7F
3C
1C
1C
1C
1C
1C
1C
1C
1C
1C
1C
1C
1C
1C
1C
1C
1C
1C
1C
1C
1C
1C
1C
3C
7F
FF
ENDCHAR
STARTCHAR 004A
ENCODING 74
SWIDTH 437 0
DWIDTH 17 0
BBX 17 29 0 -1
BITMAP
00FF80
007F00
001E00
001E00
001E00
001E00
001E00
001E00
001E00
001E00
001E00
001E00
001E00
001E00
001E00
001E00
001E00
001E00
381E00
7C1E00
F81E00
E01E00
C01C00
C01C00
C01C00
E03C00
78F800
3FF000
0FC000
ENDCHAR
STARTCHAR 004B
ENCODING 75
SWIDTH 617 0
DWIDTH 24 0
BBX 24 28 1 0
BITMAP
FF01FE
7F01FC
3C0078
3C00F0
3C00E0
3C01C0
3C0380
3C0700
3C0E00
3C1C00
3C3800
3C7800
3CFC00
3DFE00
3FCF00
3F0F80
3E0780
3C03C0
3C01E0
3C01E0
3C00F0
3C0070
3C0078
3C003C
3C003C
3C003E
7F007F
FF007F
ENDCHAR
STARTCHAR 004C
ENCODING 76
SWIDTH 565 0
DWIDTH 22 0
BBX 22 28 1 0
BITMAP
FF0000
7F0000
3C0000
3C0000
3C0000
3C0000
3C0000
3C0000
3C0000
3C0000
3C0000
3C0000
3C0000
3C0000
3C0000
3C0000
3C0000
3C0000
3C0000
3C0000
3C0000
3C0000
3C0000
3C000C
3C001C
3E00FC
7FFFFC
FFFFF8
ENDCHAR
STARTCHAR 004D
ENCODING 77
SWIDTH 822 0
DWIDTH 32 0
BBX 30 28 1 0
BITMAP
FE0001FC
FE0001FC
3F0003F0
1F0003E0
1F8003E0
1B8007E0
1B8006E0
1BC00EE0
19C00EE0
19E01CE0
18E01CE0
38F018E0
387038E0
387030E0
387870F0
383860F0
383CE0F0
381CE0F0
381FC0F0
380FC0F0
380F80F0
380780F0
380700F0
380300F0
380000F0
380000F0
FE0003FC
FE0003FC
ENDCHAR
STARTCHAR 004E
ENCODING 78
SWIDTH 720 0
DWIDTH 28 0
BBX 27 28 0 0
BITMAP
FE000FE0
7F0007E0
1F800380
1FC00180
1FE00180
1DF00180
1CF00180
1C780180
1C3C0180
1C1E0180
1C1E0180
1C0F0180
1C078180
1C03C180
1C03C180
1C01E180
1C00F180
1C007980
1C007980
1C003D80
1C001F80
1C001F80
1C000F80
1C000780
1C000780
1C000380
7F800380
FF800180
ENDCHAR
STARTCHAR 004F
ENCODING 79
SWIDTH 745 0
DWIDTH 29 0
BBX 27 30 1 -1
BITMAP
000F8000
00FFF000
03F9F800
07C03E00
0F000F00
1E000780
1C000780
3C0003C0
380003C0
780001E0
780001E0
780001E0
700001E0
F00001E0
F00001E0
F00000E0
F00001E0
700001E0
780001E0
780001E0
780001E0
380003C0
3C0003C0
1C000780
1E000780
0F000F00
07803E00
03F0FC00
00FFF000
001F8000
ENDCHAR
STARTCHAR 0050
ENCODING 80
SWIDTH 591 0
DWIDTH 23 0
BBX 22 28 1 0
BITMAP
FFFF00
7FFFE0
3E03F0
3C00F8
3C0078
3C003C
3C003C
3C003C
3C003C
3C003C
3C0078
3C0078
3C01F0
3C03E0
3C3FC0
3FFE00
3FF000
3C0000
3C0000
3C0000
3C0000
3C0000
3C0000
3C0000
3C0000
3C0000
7F0000
FF8000
ENDCHAR
STARTCHAR 0051
ENCODING 81
SWIDTH 745 0
DWIDTH 29 0
BBX 27 35 1 -6
BITMAP
000F8000
00FFF000
03F9F800
07C03E00
0F000F00
1E000780
1C000780
3C0003C0
380003C0
780001E0
780001E0
780001E0
700001E0
F00001E0
F00001E0
F00000E0
F00001E0
F00001E0
780001E0
780001E0
780001E0
780003C0
3C0203C0
3C060780
1E020780
0F030F00
07833E00
03F3FC00
00FFF000
001FC000
0000F000
00007FC0
00003FE0
00000FE0
00000180
ENDCHAR
STARTCHAR 0052
ENCODING 82
SWIDTH 642 0
DWIDTH 25 0
BBX 24 28 1 0
BITMAP
FFFF80
7FFFF0
3E03F8
3C007C
3C003C
3C003C
3C003C
3C003C
3C003C
3C0078
3C00F8
3C01F0
3C0FE0
3DFF80
3FFF00
3F8780
3C03C0
3C03C0
3C01E0
3C00E0
3C00F0
3C0070
3C0078
3C0038
3C003C
3C003C
7F00FF
FF00FF
ENDCHAR
STARTCHAR 0053
ENCODING 83
SWIDTH 565 0
DWIDTH 22 0
BBX 21 30 0 -1
BITMAP
007C00
03FF80
0F0FE0
1C01E0
1C00E0
380060
380020
380000
380000
380000
3C0000
3F0000
1FF000
0FFF00
07FFC0
00FFF0
0007F0
0000F8
000078
000038
000038
400038
E00038
E00038
700038
380070
3C01E0
1FDFC0
07FF80
00FC00
ENDCHAR
STARTCHAR 0054
ENCODING 84
SWIDTH 591 0
DWIDTH 23 0
BBX 23 28 0 0
BITMAP
7FFFFC
FFFFFE
F8383E
E0380E
C03806
003800
003800
003800
003800
003800
003800
003800
003800
003800
003800
003800
003800
003800
003800
003800
003800
003800
003800
003800
003800
007C00
00FE00
01FF00
ENDCHAR
STARTCHAR 0055
ENCODING 85
SWIDTH 694 0
DWIDTH 27 0
BBX 25 29 1 -1
BITMAP
FF003F80
FF003F80
3C000F00
3C000E00
3C000600
38000700
38000700
38000700
38000700
38000700
38000700
38000700
38000700
38000700
78000700
78000700
78000700
38000700
38000700
38000700
38000600
3C000E00
3C000E00
1C001C00
1E001C00
0F807800
07FFF000
03FFE000
007F0000
ENDCHAR
STARTCHAR 0056
ENCODING 86
SWIDTH 642 0
DWIDTH 25 0
BBX 25 29 0 -1
BITMAP
FE003F80
FE001F80
78000700
78000700
38000700
38000E00
3C000E00
3C000E00
1C000C00
1C001C00
1E001C00
0E001800
0F003800
0F003800
07003000
07807000
07807000
0380E000
03C0E000
01C0C000
01E1C000
00E1C000
00F38000
007F8000
007F0000
003E0000
003E0000
001C0000
00080000
ENDCHAR
STARTCHAR 0057
ENCODING 87
SWIDTH 925 0
DWIDTH 36 0
BBX 36 29 0 -1
BITMAP
FF01FC07F0
FE01FC07E0
7C00F001C0
38007001C0
3800F001C0
3800F00180
3C00F00180
1C00F00180
1C00F80180
1C01F80380
1C01F80300
1E01B80300
0E01BC0300
0E039C0700
0E031C0700
0F031E0600
07070E0E00
07060E0E00
078E0F0C00
038E071C00
038C079C00
03DC079800
03DC03F800
01F803F800
01F801F000
01F001F000
00F000F000
00E000E000
0060004000
ENDCHAR
STARTCHAR 0058
ENCODING 88
SWIDTH 642 0
DWIDTH 25 0
BBX 25 28 1 0
BITMAP
FF00FE00
FE00FC00
3C007800
3C007000
1E007000
0E00E000
0F00C000
0781C000
07838000
03C70000
01E60000
00FE0000
00FC0000
007C0000
007E0000
007E0000
00EF0000
01C78000
0383C000
0381E000
0701E000
0E00F000
0E007800
1C007800
3C003C00
38003E00
FC007F00
FE007F80
ENDCHAR
STARTCHAR 0059
ENCODING 89
SWIDTH 642 0
DWIDTH 25 0
BBX 27 28 -1 0
BITMAP
FF001FE0
7F000FC0
3E000780
1E000700
0E000700
0F000E00
07800C00
07801C00
03C01800
01E03000
01E07000
00F06000
0078C000
003DC000
003F8000
001F0000
000E0000
000E0000
000E0000
000E0000
000E0000
000E0000
000E0000
000E0000
000F0000
000F0000
003F8000
003FC000
ENDCHAR
STARTCHAR 005A
ENCODING 90
SWIDTH 540 0
DWIDTH 21 0
BBX 20 28 1 0
BITMAP
3FFFE0
7FFFE0
7801E0
7001E0
6003C0
000380
000780
000F00
000F00
001E00
003C00
007800
007800
00F000
01E000
03C000
03C000
078000
0F0000
1E0000
1E0000
3C0000
780000
780030
F000F0
F003F0
FFFFE0
FFFFE0
ENDCHAR
STARTCHAR 005B
ENCODING 91
SWIDTH 308 0
DWIDTH 12 0
BBX 6 34 4 -6
BITMAP
FC
FC
C0
C0
C0
C0
C0
C0
C0
C0
C0
C0
C0
C0
C0
C0
C0
C0
C0
C0
C0
C0
C0
C0
C0
C0
C0
C0
C0
C0
C0
E0
FC
FC
ENDCHAR
STARTCHAR 005C
ENCODING 92
SWIDTH 257 0
DWIDTH 10 0
BBX 11 33 -1 -4
BITMAP
8000
C000
4000
6000
6000
2000
2000
3000
3000
1000
1800
1800
0800
0C00
0C00
0400
0600
0600
0200
0300
0300
0100
0180
0180
0180
0080
00C0
00C0
0040
0060
0060
0020
0020
ENDCHAR
STARTCHAR 005D
ENCODING 93
SWIDTH 308 0
DWIDTH 12 0
BBX 7 34 2 -6
BITMAP
FE
FE
0E
0E
0E
0E
0E
0E
0E
0E
0E
0E
0E
0E
0E
0E
0E
0E
0E
0E
0E
0E
0E
0E
0E
0E
0E
0E
0E
0E
0E
0E
FE
FE
ENDCHAR
STARTCHAR 005E
ENCODING 94
SWIDTH 977 0
DWIDTH 38 0
BBX 23 11 8 17
BITMAP
007800
007C00
00FE00
01CF00
038380
0701C0
0E00E0
1C0070
300038
60001C
C00006
ENDCHAR
STARTCHAR 005F
ENCODING 95
SWIDTH 488 0
DWIDTH 19 0
BBX 19 2 0 -9
BITMAP
FFFFE0
FFFFE0
ENDCHAR
STARTCHAR 0060
ENCODING 96
SWIDTH 488 0
DWIDTH 19 0
BBX 9 6 4 21
BITMAP
E000
F000
7800
1C00
0600
0380
ENDCHAR
STARTCHAR 0061
ENCODING 97
SWIDTH 642 0
DWIDTH 25 0
BBX 26 29 0 0
BITMAP
00080000
001C0000
001E0000
003E0000
003F0000
00770000
00678000
00E78000
00E3C000
01C3C000
01C1E000
0181E000
0380E000
0300F000
0700F000
07007800
06007800
0FFFF800
0FFFFC00
1C003C00
1C001C00
18001E00
38001E00
38000E00
38000F00
78000F00
78000F00
FC001F80
FC003FC0
ENDCHAR
STARTCHAR 0062
ENCODING 98
SWIDTH 642 0
DWIDTH 25 0
BBX 24 28 1 0
BITMAP
FFFFC0
7FFFF0
3E01F8
3C0078
3C003C
3C003C
3C003C
3C003C
3C0078
3C0078
3C01F0
3C07C0
3C3F00
3FFFE0
3FE1F8
3C007C
3C003E
3C001E
3C000F
3C000F
3C000F
3C000F
3C001E
3C001E
3C003E
3E01FC
7FFFF8
FFFFC0
ENDCHAR
STARTCHAR 0063
ENCODING 99
SWIDTH 694 0
DWIDTH 27 0
BBX 25 30 1 -1
BITMAP
000FC000
007FF800
01F0FE00
07C01F00
0F000F00
1E000700
1E000300
3C000300
3C000100
78000000
78000000
78000000
F8000000
F0000000
F0000000
F0000000
F0000000
F0000000
78000000
78000000
78000000
7C000000
3C000080
3E000180
1F000380
0F800700
07C01E00
03FFFC00
01FFF000
003F8000
ENDCHAR
STARTCHAR 0064
ENCODING 100
SWIDTH 720 0
DWIDTH 28 0
BBX 26 28 1 0
BITMAP
FFFF0000
7FFFE000
3E03F000
3C007C00
3C003E00
3C001E00
3C000F00
3C000780
3C000780
3C000780
3C000380
3C0003C0
3C0003C0
3C0003C0
3C0003C0
3C0003C0
3C0003C0
3C000780
3C000780
3C000780
3C000F80
3C000F00
3C001E00
3C003C00
3C007800
3E03F000
7FFFC000
FFFE0000
ENDCHAR
STARTCHAR 0065
ENCODING 101
SWIDTH 591 0
DWIDTH 23 0
BBX 22 28 1 0
BITMAP
FFFFF8
7FFFF8
3E0078
3C0018
3C0008
3C0000
3C0000
3C0000
3C0000
3C0000
3C0040
3C01C0
3FFFC0
3FFFC0
3C0040
3C0000
3C0000
3C0000
3C0000
3C0000
3C0000
3C0000
3C0000
3C0004
3C001C
3E007C
7FFFFC
FFFFFC
ENDCHAR
STARTCHAR 0066
ENCODING 102
SWIDTH 540 0
DWIDTH 21 0
BBX 21 28 1 0
BITMAP
FFFFF0
7FFFF0
3E00F8
3C0038
3C0018
3C0000
3C0000
3C0000
3C0000
3C0000
3C0000
3C0000
3C0FC0
3FFFC0
3FFFC0
3C00C0
3C0000
3C0000
3C0000
3C0000
3C0000
3C0000
3C0000
3C0000
3C0000
3C0000
FF0000
FF0000
ENDCHAR
STARTCHAR 0067
ENCODING 103
SWIDTH 771 0
DWIDTH 30 0
BBX 27 30 1 -1
BITMAP
0007E000
007FFC00
01F87F00
03E00F80
07800380
0F000380
1E000180
1E000080
3C000000
3C000000
78000000
78000000
78000000
F8000000
F0000000
F0007FC0
F0007FE0
F00001E0
780001C0
780001C0
780001C0
3C0001C0
3C0001C0
1E0001E0
1F0001E0
0F8003E0
07C007C0
03F83F00
00FFFC00
001FE000
ENDCHAR
STARTCHAR 0068
ENCODING 104
SWIDTH 745 0
DWIDTH 29 0
BBX 28 28 1 0
BITMAP
FF000FF0
7F000FE0
3C0003C0
3C0003C0
3C000380
3C000380
3C000380
3C000380
3C000380
3C000380
3C000380
3C000380
3FFFFF80
3FFFFF80
3C000380
3C000380
3C000380
3C000380
3C000380
3C000380
3C000380
3C000380
3C000380
3C000380
3C0003C0
3C0003C0
7F000FE0
FF000FF0
ENDCHAR
STARTCHAR 0069
ENCODING 105
SWIDTH 257 0
DWIDTH 10 0
BBX 8 28 1 0
BITMAP
FF
7F
3C
1C
1C
1C
1C
1C
1C
1C
1C
1C
1C
1C
1C
1C
1C
1C
1C
1C
1C
1C
1C
1C
1C
3C
7F
FF
ENDCHAR
STARTCHAR 006A
ENCODING 106
SWIDTH 437 0
DWIDTH 17 0
BBX 17 29 0 -1
BITMAP
00FF80
007F00
001E00
001E00
001E00
001E00
001E00
001E00
001E00
001E00
001E00
001E00
001E00
001E00
001E00
001E00
001E00
001E00
381E00
7C1E00
F81E00
E01E00
C01C00
C01C00
C01C00
E03C00
78F800
3FF000
0FC000
ENDCHAR
STARTCHAR 006B
ENCODING 107
SWIDTH 617 0
DWIDTH 24 0
BBX 24 28 1 0
BITMAP
FF01FE
7F01FC
3C0078
3C00F0
3C00E0
3C01C0
3C0380
3C0700
3C0E00
3C1C00
3C3800
3C7800
3CFC00
3DFE00
3FCF00
3F0F80
3E0780
3C03C0
3C01E0
3C01E0
3C00F0
3C0070
3C0078
3C003C
3C003C
3C003E
7F007F
FF007F
ENDCHAR
STARTCHAR 006C
ENCODING 108
SWIDTH 565 0
DWIDTH 22 0
BBX 22 28 1 0
BITMAP
FF0000
7F0000
3C0000
3C0000
3C0000
3C0000
3C0000
3C0000
3C0000
3C0000
3C0000
3C0000
3C0000
3C0000
3C0000
3C0000
3C0000
3C0000
3C0000
3C0000
3C0000
3C0000
3C0000
3C000C
3C001C
3E00FC
7FFFFC
FFFFF8
ENDCHAR
STARTCHAR 006D
ENCODING 109
SWIDTH 822 0
DWIDTH 32 0
BBX 30 28 1 0
BITMAP
FE0001FC
FE0001FC
3F0003F0
1F0003E0
1F8003E0
1B8007E0
1B8006E0
1BC00EE0
19C00EE0
19E01CE0
18E01CE0
38F018E0
387038E0
387030E0
387870F0
383860F0
383CE0F0
381CE0F0
381FC0F0
380FC0F0
380F80F0
380780F0
380700F0
380300F0
380000F0
380000F0
FE0003FC
FE0003FC
ENDCHAR
STARTCHAR 006E
ENCODING 110
SWIDTH 720 0
DWIDTH 28 0
BBX 27 28 0 0
BITMAP
FE000FE0
7F0007E0
1F800380
1FC00180
1FE00180
1DF00180
1CF00180
1C780180
1C3C0180
1C1E0180
1C1E0180
1C0F0180
1C078180
1C03C180
1C03C180
1C01E180
1C00F180
1C007980
1C007980
1C003D80
1C001F80
1C001F80
1C000F80
1C000780
1C000780
1C000380
7F800380
FF800180
ENDCHAR
STARTCHAR 006F
ENCODING 111
SWIDTH 745 0
DWIDTH 29 0
BBX 27 30 1 -1
BITMAP
000F8000
00FFF000
03F9F800
07C03E00
0F000F00
1E000780
1C000780
3C0003C0
380003C0
780001E0
780001E0
780001E0
700001E0
F00001E0
F00001E0
F00000E0
F00001E0
700001E0
780001E0
780001E0
780001E0
380003C0
3C0003C0
1C000780
1E000780
0F000F00
07803E00
03F0FC00
00FFF000
001F8000
ENDCHAR
STARTCHAR 0070
ENCODING 112
SWIDTH 591 0
DWIDTH 23 0
BBX 22 28 1 0
BITMAP
FFFF00
7FFFE0
3E03F0
3C00F8
3C0078
3C003C
3C003C
3C003C
3C003C
3C003C
3C0078
3C0078
3C01F0
3C03E0
3C3FC0
3FFE00
3FF000
3C0000
3C0000
3C0000
3C0000
3C0000
3C0000
3C0000
3C0000
3C0000
7F0000
FF8000
ENDCHAR
STARTCHAR 0071
ENCODING 113
SWIDTH 745 0
DWIDTH 29 0
BBX 27 35 1 -6
BITMAP
000F8000
00FFF000
03F9F800
07C03E00
0F000F00
1E000780
1C000780
3C0003C0
380003C0
780001E0
780001E0
780001E0
700001E0
F00001E0
F00001E0
F00000E0
F00001E0
F00001E0
780001E0
780001E0
780001E0
780003C0
3C0203C0
3C060780
1E020780
0F030F00
07833E00
03F3FC00
00FFF000
001FC000
0000F000
00007FC0
00003FE0
00000FE0
00000180
ENDCHAR
STARTCHAR 0072
ENCODING 114
SWIDTH 642 0
DWIDTH 25 0
BBX 24 28 1 0
BITMAP
FFFF80
7FFFF0
3E03F8
3C007C
3C003C
3C003C
3C003C
3C003C
3C003C
3C0078
3C00F8
3C01F0
3C0FE0
3DFF80
3FFF00
3F8780
3C03C0
3C03C0
3C01E0
3C00E0
3C00F0
3C0070
3C0078
3C0038
3C003C
3C003C
7F00FF
FF00FF
ENDCHAR
STARTCHAR 0073
ENCODING 115
SWIDTH 565 0
DWIDTH 22 0
BBX 21 30 0 -1
BITMAP
007C00
03FF80
0F0FE0
1C01E0
1C00E0
380060
380020
380000
380000
380000
3C0000
3F0000
1FF000
0FFF00
07FFC0
00FFF0
0007F0
0000F8
000078
000038
000038
400038
E00038
E00038
700038
380070
3C01E0
1FDFC0
07FF80
00FC00
ENDCHAR
STARTCHAR 0074
ENCODING 116
SWIDTH 591 0
DWIDTH 23 0
BBX 23 28 0 0
BITMAP
7FFFFC
FFFFFE
F8383E
E0380E
C03806
003800
003800
003800
003800
003800
003800
003800
003800
003800
003800
003800
003800
003800
003800
003800
003800
003800
003800
003800
003800
007C00
00FE00
01FF00
ENDCHAR
STARTCHAR 0075
ENCODING 117
SWIDTH 694 0
DWIDTH 27 0
BBX 25 29 1 -1
BITMAP
FF003F80
FF003F80
3C000F00
3C000E00
3C000600
38000700
38000700
38000700
38000700
38000700
38000700
38000700
38000700
38000700
78000700
78000700
78000700
38000700
38000700
38000700
38000600
3C000E00
3C000E00
1C001C00
1E001C00
0F807800
07FFF000
03FFE000
007F0000
ENDCHAR
STARTCHAR 0076
ENCODING 118
SWIDTH 642 0
DWIDTH 25 0
BBX 25 29 0 -1
BITMAP
FE003F80
FE001F80
78000700
78000700
38000700
38000E00
3C000E00
3C000E00
1C000C00
1C001C00
1E001C00
0E001800
0F003800
0F003800
07003000
07807000
07807000
0380E000
03C0E000
01C0C000
01E1C000
00E1C000
00F38000
007F8000
007F0000
003E0000
003E0000
001C0000
00080000
ENDCHAR
STARTCHAR 0077
ENCODING 119
SWIDTH 925 0
DWIDTH 36 0
BBX 36 29 0 -1
BITMAP
FF01FC07F0
FE01FC07E0
7C00F001C0
38007001C0
3800F001C0
3800F00180
3C00F00180
1C00F00180
1C00F80180
1C01F80380
1C01F80300
1E01B80300
0E01BC0300
0E039C0700
0E031C0700
0F031E0600
07070E0E00
07060E0E00
078E0F0C00
038E071C00
038C079C00
03DC079800
03DC03F800
01F803F800
01F801F000
01F001F000
00F000F000
00E000E000
0060004000
ENDCHAR
STARTCHAR 0078
ENCODING 120
SWIDTH 642 0
DWIDTH 25 0
BBX 25 28 1 0
BITMAP
FF00FE00
FE00FC00
3C007800
3C007000
1E007000
0E00E000
0F00C000
0781C000
07838000
03C70000
01E60000
00FE0000
00FC0000
007C0000
007E0000
007E0000
00EF0000
01C78000
0383C000
0381E000
0701E000
0E00F000
0E007800
1C007800
3C003C00
38003E00
FC007F00
FE007F80
ENDCHAR
STARTCHAR 0079
ENCODING 121
SWIDTH 642 0
DWIDTH 25 0
BBX 27 28 -1 0
BITMAP
FF001FE0
7F000FC0
3E000780
1E000700
0E000700
0F000E00
07800C00
07801C00
03C01800
01E03000
01E07000
00F06000
0078C000
003DC000
003F8000
001F0000
000E0000
000E0000
000E0000
000E0000
000E0000
000E0000
000E0000
000E0000
000F0000
000F0000
003F8000
003FC000
ENDCHAR
STARTCHAR 007A
ENCODING 122
SWIDTH 540 0
DWIDTH 21 0
BBX 20 28 1 0
BITMAP
3FFFE0
7FFFE0
7801E0
7001E0
6003C0
000380
000780
000F00
000F00
001E00
003C00
007800
007800
00F000
01E000
03C000
03C000
078000
0F0000
1E0000
1E0000
3C0000
780000
780030
F000F0
F003F0
FFFFE0
FFFFE0
ENDCHAR
STARTCHAR 007B
ENCODING 123
SWIDTH 488 0
DWIDTH 19 0
BBX 13 34 3 -5
BITMAP
0038
01E0
0180
0380
0380
0300
0300
0300
0300
0300
0300
0300
0300
0700
0600
0E00
F800
F800
0E00
0600
0700
0300
0300
0300
0300
0300
0300
0300
0300
0380
0380
0180
01F0
0018
ENDCHAR
STARTCHAR 007C
ENCODING 124
SWIDTH 488 0
DWIDTH 19 0
BBX 2 39 9 -9
BITMAP
C0
C0
C0
C0
C0
C0
C0
C0
C0
C0
C0
C0
C0
C0
C0
C0
C0
C0
C0
C0
C0
C0
C0
C0
C0
C0
C0
C0
C0
C0
C0
C0
C0
C0
C0
C0
C0
C0
C0
ENDCHAR
STARTCHAR 007D
ENCODING 125
SWIDTH 488 0
DWIDTH 19 0
BBX 13 34 3 -5
BITMAP
E000
1C00
0E00
0600
0700
0700
0700
0700
0700
0700
0700
0700
0700
0300
0380
01C0
0078
00F8
0180
0300
0300
0700
0700
0700
0700
0700
0700
0700
0700
0700
0600
0E00
3C00
C000
ENDCHAR
STARTCHAR 007E
ENCODING 126
SWIDTH 822 0
DWIDTH 32 0
BBX 26 5 3 9
BITMAP
07E00040
3FFC01C0
7C3FDF80
E007FF00
8000F800
ENDCHAR
STARTCHAR 0080
ENCODING 128
SWIDTH 642 0
DWIDTH 25 0
BBX 26 38 0 0
BITMAP
00800000
01E00000
00F00000
00780000
001C0000
000E0000
00030000
00000000
00000000
00080000
001C0000
001E0000
003E0000
003F0000
00770000
00678000
00E78000
00E3C000
01C3C000
01C1E000
0181E000
0380E000
0300F000
0700F000
07007800
06007800
0FFFF800
0FFFFC00
1C003C00
1C001C00
18001E00
38001E00
38000E00
38000F00
78000F00
78000F00
FC001F80
FC003FC0
ENDCHAR
STARTCHAR 0081
ENCODING 129
SWIDTH 642 0
DWIDTH 25 0
BBX 26 39 0 1
BITMAP
003E0000
00310000
00010000
00010000
00020000
000C0000
00080000
00080000
00000000
00000000
00080000
001C0000
001E0000
003E0000
003F0000
00770000
00678000
00E78000
00E3C000
01C3C000
01C1E000
0181E000
0380E000
0300F000
0700F000
07007800
06007800
0FFFF800
0FFFFC00
1C003C00
1C001C00
18001E00
38001E00
38000E00
38000F00
78000F00
78000F00
FC001F80
FC003FC0
ENDCHAR
STARTCHAR 008D
ENCODING 141
SWIDTH 642 0
DWIDTH 25 0
BBX 26 43 0 0
BITMAP
00002000
00007000
0000F000
0001C000
00038000
00060000
000C0000
00000000
01008000
00C18000
00FF0000
007E0000
00000000
00000000
00080000
001C0000
001E0000
003E0000
003F0000
00770000
00678000
00E78000
00E3C000
01C3C000
01C1E000
0181E000
0380E000
0300F000
0700F000
07007800
06007800
0FFFF800
0FFFFC00
1C003C00
1C001C00
18001E00
38001E00
38000E00
38000F00
78000F00
78000F00
FC001F80
FC003FC0
ENDCHAR
STARTCHAR 008E
ENCODING 142
SWIDTH 642 0
DWIDTH 25 0
BBX 26 43 0 0
BITMAP
06000000
07000000
07800000
01C00000
00E00000
00300000
00080000
00000000
01008000
00C18000
00FF0000
007E0000
00000000
00000000
00080000
001C0000
001E0000
003E0000
003F0000
00770000
00678000
00E78000
00E3C000
01C3C000
01C1E000
0181E000
0380E000
0300F000
0700F000
07007800
06007800
0FFFF800
0FFFFC00
1C003C00
1C001C00
18001E00
38001E00
38000E00
38000F00
78000F00
78000F00
FC001F80
FC003FC0
ENDCHAR
STARTCHAR 008F
ENCODING 143
SWIDTH 642 0
DWIDTH 25 0
BBX 26 44 0 0
BITMAP
001E0000
00210000
00010000
00010000
00030000
00060000
00080000
00080000
00000000
01008000
00C18000
00FF0000
007E0000
00000000
00000000
00080000
001C0000
001E0000
003E0000
003F0000
00770000
00678000
00E78000
00E3C000
01C3C000
01C1E000
0181E000
0380E000
0300F000
0700F000
07007800
06007800
0FFFF800
0FFFFC00
1C003C00
1C001C00
18001E00
38001E00
38000E00
38000F00
78000F00
78000F00
FC001F80
FC003FC0
ENDCHAR
STARTCHAR 0090
ENCODING 144
SWIDTH 591 0
DWIDTH 23 0
BBX 24 42 1 0
BITMAP
000007
00000F
00001E
000038
000070
0038C0
007D80
006E00
00C600
018300
010180
000000
000000
000000
FFFFF8
7FFFF8
3E0078
3C0018
3C0008
3C0000
3C0000
3C0000
3C0000
3C0000
3C0040
3C01C0
3FFFC0
3FFFC0
3C0040
3C0000
3C0000
3C0000
3C0000
3C0000
3C0000
3C0000
3C0000
3C0004
3C001C
3E007C
7FFFFC
FFFFFC
ENDCHAR
STARTCHAR 009D
ENCODING 157
SWIDTH 745 0
DWIDTH 29 0
BBX 27 41 1 -1
BITMAP
00003800
00007800
0000F000
0001E000
00038000
00060780
000C0440
00000040
00000040
000000C0
00000380
000F8400
00FFF800
03F9F800
07C03E00
0F000F00
1E000780
1C000780
3C0003C0
380003C0
780001E0
780001E0
780001E0
700001E0
F00001E0
F00001E0
F00000E0
F00001E0
700001E0
780001E0
780001E0
780001E0
380003C0
3C0003C0
1C000780
1E000780
0F000F00
07803E00
03F0FC00
00FFF000
001F8000
ENDCHAR
STARTCHAR 009E
ENCODING 158
SWIDTH 745 0
DWIDTH 29 0
BBX 27 41 1 -1
BITMAP
00E00000
00F00000
00780000
003C0000
000E0000
00030780
00018440
00000040
00000040
000000C0
00000380
000F8400
00FFF800
03F9F800
07C03E00
0F000F00
1E000780
1C000780
3C0003C0
380003C0
780001E0
780001E0
780001E0
700001E0
F00001E0
F00001E0
F00000E0
F00001E0
700001E0
780001E0
780001E0
780001E0
380003C0
3C0003C0
1C000780
1E000780
0F000F00
07803E00
03F0FC00
00FFF000
001F8000
ENDCHAR
STARTCHAR 00A0
ENCODING 160
SWIDTH 540 0
DWIDTH 21 0
BBX 0 0 0 0
BITMAP
ENDCHAR
STARTCHAR 00A1
ENCODING 161
SWIDTH 642 0
DWIDTH 25 0
BBX 26 43 0 0
BITMAP
00002000
00007000
0000F000
0001C000
00038000
00060000
000C0000
00000000
01008000
00C18000
00FF0000
007E0000
00000000
00000000
00080000
001C0000
001E0000
003E0000
003F0000
00770000
00678000
00E78000
00E3C000
01C3C000
01C1E000
0181E000
0380E000
0300F000
0700F000
07007800
06007800
0FFFF800
0FFFFC00
1C003C00
1C001C00
18001E00
38001E00
38000E00
38000F00
78000F00
78000F00
FC001F80
FC003FC0
ENDCHAR
STARTCHAR 00A2
ENCODING 162
SWIDTH 642 0
DWIDTH 25 0
BBX 26 43 0 0
BITMAP
06000000
07000000
07800000
01C00000
00E00000
00300000
00080000
00000000
01008000
00C18000
00FF0000
007E0000
00000000
00000000
00080000
001C0000
001E0000
003E0000
003F0000
00770000
00678000
00E78000
00E3C000
01C3C000
01C1E000
0181E000
0380E000
0300F000
0700F000
07007800
06007800
0FFFF800
0FFFFC00
1C003C00
1C001C00
18001E00
38001E00
38000E00
38000F00
78000F00
78000F00
FC001F80
FC003FC0
ENDCHAR
STARTCHAR 00A3
ENCODING 163
SWIDTH 642 0
DWIDTH 25 0
BBX 26 44 0 0
BITMAP
001E0000
00210000
00010000
00010000
00030000
00060000
00080000
00080000
00000000
01008000
00C18000
00FF0000
007E0000
00000000
00000000
00080000
001C0000
001E0000
003E0000
003F0000
00770000
00678000
00E78000
00E3C000
01C3C000
01C1E000
0181E000
0380E000
0300F000
0700F000
07007800
06007800
0FFFF800
0FFFFC00
1C003C00
1C001C00
18001E00
38001E00
38000E00
38000F00
78000F00
78000F00
FC001F80
FC003FC0
ENDCHAR
STARTCHAR 00A4
ENCODING 164
SWIDTH 642 0
DWIDTH 25 0
BBX 26 42 0 0
BITMAP
00384000
00FFC000
00FF8000
01800000
00000000
00000000
00000000
01008000
00C18000
00FF0000
007E0000
00000000
00000000
00080000
001C0000
001E0000
003E0000
003F0000
00770000
00678000
00E78000
00E3C000
01C3C000
01C1E000
0181E000
0380E000
0300F000
0700F000
07007800
06007800
0FFFF800
0FFFFC00
1C003C00
1C001C00
18001E00
38001E00
38000E00
38000F00
78000F00
78000F00
FC001F80
FC003FC0
ENDCHAR
STARTCHAR 00A5
ENCODING 165
SWIDTH 642 0
DWIDTH 25 0
BBX 26 41 0 -6
BITMAP
01008000
00C18000
00FF0000
007E0000
00000000
00000000
00080000
001C0000
001E0000
003E0000
003F0000
00770000
00678000
00E78000
00E3C000
01C3C000
01C1E000
0181E000
0380E000
0300F000
0700F000
07007800
06007800
0FFFF800
0FFFFC00
1C003C00
1C001C00
18001E00
38001E00
38000E00
38000F00
78000F00
78000F00
FC001F80
FC003FC0
00000000
00000000
00380000
007C0000
003C0000
00380000
ENDCHAR
STARTCHAR 00A6
ENCODING 166
SWIDTH 745 0
DWIDTH 29 0
BBX 27 43 1 -1
BITMAP
00082000
003FE000
007FC000
00410000
00000000
00000000
00000000
00000780
00000440
00000040
00000040
000000C0
00000380
000F8400
00FFF800
03F9F800
07C03E00
0F000F00
1E000780
1C000780
3C0003C0
380003C0
780001E0
780001E0
780001E0
700001E0
F00001E0
F00001E0
F00000E0
F00001E0
700001E0
780001E0
780001E0
780001E0
380003C0
3C0003C0
1C000780
1E000780
0F000F00
07803E00
03F0FC00
00FFF000
001F8000
ENDCHAR
STARTCHAR 00A7
ENCODING 167
SWIDTH 745 0
DWIDTH 29 0
BBX 27 41 1 -1
BITMAP
00003800
00007800
0000F000
0001E000
00038000
00060780
000C0440
00000040
00000040
000000C0
00000380
000F8400
00FFF800
03F9F800
07C03E00
0F000F00
1E000780
1C000780
3C0003C0
380003C0
780001E0
780001E0
780001E0
700001E0
F00001E0
F00001E0
F00000E0
F00001E0
700001E0
780001E0
780001E0
780001E0
380003C0
3C0003C0
1C000780
1E000780
0F000F00
07803E00
03F0FC00
00FFF000
001F8000
ENDCHAR
STARTCHAR 00A8
ENCODING 168
SWIDTH 694 0
DWIDTH 27 0
BBX 25 39 1 -1
BITMAP
00400000
00E00000
00F00000
00780000
001C0000
00060000
00030000
00000000
00000000
00000000
FF003F80
FF003F80
3C000F00
3C000E00
3C000600
38000700
38000700
38000700
38000700
38000700
38000700
38000700
38000700
38000700
78000700
78000700
78000700
38000700
38000700
38000700
38000600
3C000E00
3C000E00
1C001C00
1E001C00
0F807800
07FFF000
03FFE000
007F0000
ENDCHAR
STARTCHAR 00A9
ENCODING 169
SWIDTH 745 0
DWIDTH 29 0
BBX 27 41 1 -1
BITMAP
00E00000
00F00000
00780000
003C0000
000E0000
00030780
00018440
00000040
00000040
000000C0
00000380
000F8400
00FFF800
03F9F800
07C03E00
0F000F00
1E000780
1C000780
3C0003C0
380003C0
780001E0
780001E0
780001E0
700001E0
F00001E0
F00001E0
F00000E0
F00001E0
700001E0
780001E0
780001E0
780001E0
380003C0
3C0003C0
1C000780
1E000780
0F000F00
07803E00
03F0FC00
00FFF000
001F8000
ENDCHAR
STARTCHAR 00AA
ENCODING 170
SWIDTH 745 0
DWIDTH 29 0
BBX 27 43 1 -1
BITMAP
00070000
00088000
0008C000
0000C000
00008000
00018000
00020000
00040780
00000440
00000040
00000040
000000C0
00000380
000F8400
00FFF800
03F9F800
07C03E00
0F000F00
1E000780
1C000780
3C0003C0
380003C0
780001E0
780001E0
780001E0
700001E0
F00001E0
F00001E0
F00000E0
F00001E0
700001E0
780001E0
780001E0
780001E0
380003C0
3C0003C0
1C000780
1E000780
0F000F00
07803E00
03F0FC00
00FFF000
001F8000
ENDCHAR
STARTCHAR 00AB
ENCODING 171
SWIDTH 745 0
DWIDTH 29 0
BBX 27 43 1 -1
BITMAP
00082000
003FE000
007FC000
00410000
00000000
00000000
00000000
00000780
00000440
00000040
00000040
000000C0
00000380
000F8400
00FFF800
03F9F800
07C03E00
0F000F00
1E000780
1C000780
3C0003C0
380003C0
780001E0
780001E0
780001E0
700001E0
F00001E0
F00001E0
F00000E0
F00001E0
700001E0
780001E0
780001E0
780001E0
380003C0
3C0003C0
1C000780
1E000780
0F000F00
07803E00
03F0FC00
00FFF000
001F8000
ENDCHAR
STARTCHAR 00AC
ENCODING 172
SWIDTH 694 0
DWIDTH 27 0
BBX 25 37 1 -1
BITMAP
00001000
001FF000
003FE000
0061C000
00400000
00000000
00000000
00000000
FF003F80
FF003F80
3C000F00
3C000E00
3C000600
38000700
38000700
38000700
38000700
38000700
38000700
38000700
38000700
38000700
78000700
78000700
78000700
38000700
38000700
38000700
38000600
3C000E00
3C000E00
1C001C00
1E001C00
0F807800
07FFF000
03FFE000
007F0000
ENDCHAR
STARTCHAR 00AD
ENCODING 173
SWIDTH 694 0
DWIDTH 27 0
BBX 28 41 1 -1
BITMAP
00007000
0000F000
0001E000
0001C000
00030000
000601E0
00080310
00000010
00000010
00000030
000000E0
00000100
FF003F80
FF003F80
3C000F00
3C000E00
3C000600
38000700
38000700
38000700
38000700
38000700
38000700
38000700
38000700
38000700
78000700
78000700
78000700
38000700
38000700
38000700
38000600
3C000E00
3C000E00
1C001C00
1E001C00
0F807800
07FFF000
03FFE000
007F0000
ENDCHAR
STARTCHAR 00AE
ENCODING 174
SWIDTH 745 0
DWIDTH 29 0
BBX 27 42 1 -7
BITMAP
00000780
00000440
00000040
00000040
000000C0
00000380
000F8400
00FFF800
03F9F800
07C03E00
0F000F00
1E000780
1C000780
3C0003C0
380003C0
780001E0
780001E0
780001E0
700001E0
F00001E0
F00001E0
F00000E0
F00001E0
700001E0
780001E0
780001E0
780001E0
380003C0
3C0003C0
1C000780
1E000780
0F000F00
07803E00
03F0FC00
00FFF000
001F8000
00000000
00000000
000F0000
000F0000
000F0000
00060000
ENDCHAR
STARTCHAR 00AF
ENCODING 175
SWIDTH 694 0
DWIDTH 27 0
BBX 28 41 1 -1
BITMAP
00C00000
01E00000
00F00000
00780000
001C0000
000E01E0
00030310
00000010
00000010
00000030
000000E0
00000100
FF003F80
FF003F80
3C000F00
3C000E00
3C000600
38000700
38000700
38000700
38000700
38000700
38000700
38000700
38000700
38000700
78000700
78000700
78000700
38000700
38000700
38000700
38000600
3C000E00
3C000E00
1C001C00
1E001C00
0F807800
07FFF000
03FFE000
007F0000
ENDCHAR
STARTCHAR 00B0
ENCODING 176
SWIDTH 745 0
DWIDTH 29 0
BBX 27 44 1 -1
BITMAP
00001E00
00003100
00000100
00000100
00000200
00000C00
000F0800
000F0800
001F8000
0039C000
00204000
00402000
00000000
00000000
000F8000
00FFF000
03F9F800
07C03E00
0F000F00
1E000780
1C000780
3C0003C0
380003C0
780001E0
780001E0
780001E0
700001E0
F00001E0
F00001E0
F00000E0
F00001E0
700001E0
780001E0
780001E0
780001E0
380003C0
3C0003C0
1C000780
1E000780
0F000F00
07803E00
03F0FC00
00FFF000
001F8000
ENDCHAR
STARTCHAR 00B1
ENCODING 177
SWIDTH 694 0
DWIDTH 27 0
BBX 28 41 1 -1
BITMAP
000F8000
00088000
0000C000
00008000
00018000
000301E0
00040310
00040010
00000010
00000030
000000E0
00000100
FF003F80
FF003F80
3C000F00
3C000E00
3C000600
38000700
38000700
38000700
38000700
38000700
38000700
38000700
38000700
38000700
78000700
78000700
78000700
38000700
38000700
38000700
38000600
3C000E00
3C000E00
1C001C00
1E001C00
0F807800
07FFF000
03FFE000
007F0000
ENDCHAR
STARTCHAR 00B2
ENCODING 178
SWIDTH 642 0
DWIDTH 25 0
BBX 27 37 -1 0
BITMAP
01C00000
01E00000
00F00000
00380000
000C0000
00060000
00010000
00000000
00000000
FF001FE0
7F000FC0
3E000780
1E000700
0E000700
0F000E00
07800C00
07801C00
03C01800
01E03000
01E07000
00F06000
0078C000
003DC000
003F8000
001F0000
000E0000
000E0000
000E0000
000E0000
000E0000
000E0000
000E0000
000E0000
000F0000
000F0000
003F8000
003FC000
ENDCHAR
STARTCHAR 00B3
ENCODING 179
SWIDTH 642 0
DWIDTH 25 0
BBX 27 36 -1 0
BITMAP
000E1000
001FF000
003FE000
00200000
00000000
00000000
00000000
00000000
FF001FE0
7F000FC0
3E000780
1E000700
0E000700
0F000E00
07800C00
07801C00
03C01800
01E03000
01E07000
00F06000
0078C000
003DC000
003F8000
001F0000
000E0000
000E0000
000E0000
000E0000
000E0000
000E0000
000E0000
000E0000
000F0000
000F0000
003F8000
003FC000
ENDCHAR
STARTCHAR 00B4
ENCODING 180
SWIDTH 257 0
DWIDTH 10 0
BBX 10 38 1 0
BITMAP
0080
03C0
0380
0700
0E00
1800
2000
0000
0000
0000
FF00
7F00
3C00
1C00
1C00
1C00
1C00
1C00
1C00
1C00
1C00
1C00
1C00
1C00
1C00
1C00
1C00
1C00
1C00
1C00
1C00
1C00
1C00
1C00
1C00
3C00
7F00
FF00
ENDCHAR
STARTCHAR 00B5
ENCODING 181
SWIDTH 257 0
DWIDTH 10 0
BBX 9 38 0 0
BITMAP
4000
E000
F000
3800
1C00
0600
0300
0000
0000
0000
7F80
3F80
1E00
0E00
0E00
0E00
0E00
0E00
0E00
0E00
0E00
0E00
0E00
0E00
0E00
0E00
0E00
0E00
0E00
0E00
0E00
0E00
0E00
0E00
0E00
1E00
3F80
7F80
ENDCHAR
STARTCHAR 00B6
ENCODING 182
SWIDTH 745 0
DWIDTH 29 0
BBX 27 44 1 -7
BITMAP
000F0000
000F0000
001F8000
0039C000
00204000
00402000
00000000
00000000
000F8000
00FFF000
03F9F800
07C03E00
0F000F00
1E000780
1C000780
3C0003C0
380003C0
780001E0
780001E0
780001E0
700001E0
F00001E0
F00001E0
F00000E0
F00001E0
700001E0
780001E0
780001E0
780001E0
380003C0
3C0003C0
1C000780
1E000780
0F000F00
07803E00
03F0FC00
00FFF000
001F8000
00000000
00000000
000F0000
000F0000
000F0000
00060000
ENDCHAR
STARTCHAR 00B8
ENCODING 184
SWIDTH 257 0
DWIDTH 10 0
BBX 10 36 0 0
BITMAP
0040
7C40
FFC0
CF80
8000
0000
0000
0000
7F80
3F80
1E00
0E00
0E00
0E00
0E00
0E00
0E00
0E00
0E00
0E00
0E00
0E00
0E00
0E00
0E00
0E00
0E00
0E00
0E00
0E00
0E00
0E00
0E00
1E00
3F80
7F80
ENDCHAR
STARTCHAR 00B9
ENCODING 185
SWIDTH 745 0
DWIDTH 29 0
BBX 27 39 1 -1
BITMAP
00004000
0000E000
0001E000
0003C000
00070000
000E0000
00180000
00000000
00000000
000F8000
00FFF000
03F9F800
07C03E00
0F000F00
1E000780
1C000780
3C0003C0
380003C0
780001E0
780001E0
780001E0
700001E0
F00001E0
F00001E0
F00000E0
F00001E0
700001E0
780001E0
780001E0
780001E0
380003C0
3C0003C0
1C000780
1E000780
0F000F00
07803E00
03F0FC00
00FFF000
001F8000
ENDCHAR
STARTCHAR 00BA
ENCODING 186
SWIDTH 694 0
DWIDTH 27 0
BBX 28 41 1 -1
BITMAP
000F8000
00088000
0000C000
00008000
00018000
000301E0
00040310
00040010
00000010
00000030
000000E0
00000100
FF003F80
FF003F80
3C000F00
3C000E00
3C000600
38000700
38000700
38000700
38000700
38000700
38000700
38000700
38000700
38000700
78000700
78000700
78000700
38000700
38000700
38000700
38000600
3C000E00
3C000E00
1C001C00
1E001C00
0F807800
07FFF000
03FFE000
007F0000
ENDCHAR
STARTCHAR 00BB
ENCODING 187
SWIDTH 694 0
DWIDTH 27 0
BBX 28 44 1 -1
BITMAP
00002000
003E2000
007FE000
0047C000
00400000
00000000
00000000
00000000
000001E0
00000310
00000010
00000010
00000030
000000E0
00000100
FF003F80
FF003F80
3C000F00
3C000E00
3C000600
38000700
38000700
38000700
38000700
38000700
38000700
38000700
38000700
38000700
78000700
78000700
78000700
38000700
38000700
38000700
38000600
3C000E00
3C000E00
1C001C00
1E001C00
0F807800
07FFF000
03FFE000
007F0000
ENDCHAR
STARTCHAR 00BC
ENCODING 188
SWIDTH 745 0
DWIDTH 29 0
BBX 27 39 1 -1
BITMAP
00200000
00700000
00780000
003C0000
000E0000
00070000
00018000
00000000
00000000
000F8000
00FFF000
03F9F800
07C03E00
0F000F00
1E000780
1C000780
3C0003C0
380003C0
780001E0
780001E0
780001E0
700001E0
F00001E0
F00001E0
F00000E0
F00001E0
700001E0
780001E0
780001E0
780001E0
380003C0
3C0003C0
1C000780
1E000780
0F000F00
07803E00
03F0FC00
00FFF000
001F8000
ENDCHAR
STARTCHAR 00BD
ENCODING 189
SWIDTH 745 0
DWIDTH 29 0
BBX 27 40 1 -1
BITMAP
000F8000
00088000
0000C000
0000C000
00008000
00030000
00020000
00040000
00000000
00000000
000F8000
00FFF000
03F9F800
07C03E00
0F000F00
1E000780
1C000780
3C0003C0
380003C0
780001E0
780001E0
780001E0
700001E0
F00001E0
F00001E0
F00000E0
F00001E0
700001E0
780001E0
780001E0
780001E0
380003C0
3C0003C0
1C000780
1E000780
0F000F00
07803E00
03F0FC00
00FFF000
001F8000
ENDCHAR
STARTCHAR 00BE
ENCODING 190
SWIDTH 745 0
DWIDTH 29 0
BBX 27 37 1 -1
BITMAP
001C2000
003FE000
007FC000
00400000
00000000
00000000
00000000
000F8000
00FFF000
03F9F800
07C03E00
0F000F00
1E000780
1C000780
3C0003C0
380003C0
780001E0
780001E0
780001E0
700001E0
F00001E0
F00001E0
F00000E0
F00001E0
700001E0
780001E0
780001E0
780001E0
380003C0
3C0003C0
1C000780
1E000780
0F000F00
07803E00
03F0FC00
00FFF000
001F8000
ENDCHAR
STARTCHAR 00BF
ENCODING 191
SWIDTH 694 0
DWIDTH 27 0
BBX 28 41 1 -6
BITMAP
000001E0
00000310
00000010
00000010
00000030
000000E0
00000100
FF003F80
FF003F80
3C000F00
3C000E00
3C000600
38000700
38000700
38000700
38000700
38000700
38000700
38000700
38000700
38000700
78000700
78000700
78000700
38000700
38000700
38000700
38000600
3C000E00
3C000E00
1C001C00
1E001C00
0F807800
07FFF000
03FFE000
007F0000
00000000
00080000
001C0000
003E0000
001C0000
ENDCHAR
STARTCHAR 00C0
ENCODING 192
SWIDTH 642 0
DWIDTH 25 0
BBX 26 42 0 0
BITMAP
60000000
70000000
78000000
1C000000
0E000000
031E0000
00BE0000
003F0000
00638000
00C18000
00804000
00000000
00000000
00080000
001C0000
001E0000
003E0000
003F0000
00770000
00678000
00E78000
00E3C000
01C3C000
01C1E000
0181E000
0380E000
0300F000
0700F000
07007800
06007800
0FFFF800
0FFFFC00
1C003C00
1C001C00
18001E00
38001E00
38000E00
38000F00
78000F00
78000F00
FC001F80
FC003FC0
ENDCHAR
STARTCHAR 00C1
ENCODING 193
SWIDTH 642 0
DWIDTH 25 0
BBX 26 38 0 0
BITMAP
00008000
0001C000
0003C000
00078000
000E0000
00180000
00300000
00000000
00000000
00080000
001C0000
001E0000
003E0000
003F0000
00770000
00678000
00E78000
00E3C000
01C3C000
01C1E000
0181E000
0380E000
0300F000
0700F000
07007800
06007800
0FFFF800
0FFFFC00
1C003C00
1C001C00
18001E00
38001E00
38000E00
38000F00
78000F00
78000F00
FC001F80
FC003FC0
ENDCHAR
STARTCHAR 00C2
ENCODING 194
SWIDTH 642 0
DWIDTH 25 0
BBX 26 37 0 0
BITMAP
001E0000
003E0000
003F0000
00638000
00C18000
00804000
00000000
00000000
00080000
001C0000
001E0000
003E0000
003F0000
00770000
00678000
00E78000
00E3C000
01C3C000
01C1E000
0181E000
0380E000
0300F000
0700F000
07007800
06007800
0FFFF800
0FFFFC00
1C003C00
1C001C00
18001E00
38001E00
38000E00
38000F00
78000F00
78000F00
FC001F80
FC003FC0
ENDCHAR
STARTCHAR 00C3
ENCODING 195
SWIDTH 642 0
DWIDTH 25 0
BBX 26 42 0 0
BITMAP
00000180
000003C0
00000780
00000F00
00001C00
001E3000
003E6000
003F0000
00638000
00C18000
00804000
00000000
00000000
00080000
001C0000
001E0000
003E0000
003F0000
00770000
00678000
00E78000
00E3C000
01C3C000
01C1E000
0181E000
0380E000
0300F000
0700F000
07007800
06007800
0FFFF800
0FFFFC00
1C003C00
1C001C00
18001E00
38001E00
38000E00
38000F00
78000F00
78000F00
FC001F80
FC003FC0
ENDCHAR
STARTCHAR 00C4
ENCODING 196
SWIDTH 642 0
DWIDTH 25 0
BBX 26 44 0 0
BITMAP
00007800
0000CC00
00008400
00000400
00000C00
00001800
00003000
001E2000
003E2000
003F0000
00638000
00C18000
00804000
00000000
00000000
00080000
001C0000
001E0000
003E0000
003F0000
00770000
00678000
00E78000
00E3C000
01C3C000
01C1E000
0181E000
0380E000
0300F000
0700F000
07007800
06007800
0FFFF800
0FFFFC00
1C003C00
1C001C00
18001E00
38001E00
38000E00
38000F00
78000F00
78000F00
FC001F80
FC003FC0
ENDCHAR
STARTCHAR 00C5
ENCODING 197
SWIDTH 642 0
DWIDTH 25 0
BBX 26 42 0 0
BITMAP
00384000
00FFC000
00FF8000
01800000
00000000
001E0000
003E0000
003F0000
00638000
00C18000
00804000
00000000
00000000
00080000
001C0000
001E0000
003E0000
003F0000
00770000
00678000
00E78000
00E3C000
01C3C000
01C1E000
0181E000
0380E000
0300F000
0700F000
07007800
06007800
0FFFF800
0FFFFC00
1C003C00
1C001C00
18001E00
38001E00
38000E00
38000F00
78000F00
78000F00
FC001F80
FC003FC0
ENDCHAR
STARTCHAR 00C6
ENCODING 198
SWIDTH 642 0
DWIDTH 25 0
BBX 26 43 0 -6
BITMAP
001E0000
003E0000
003F0000
00638000
00C18000
00804000
00000000
00000000
00080000
001C0000
001E0000
003E0000
003F0000
00770000
00678000
00E78000
00E3C000
01C3C000
01C1E000
0181E000
0380E000
0300F000
0700F000
07007800
06007800
0FFFF800
0FFFFC00
1C003C00
1C001C00
18001E00
38001E00
38000E00
38000F00
78000F00
78000F00
FC001F80
FC003FC0
00000000
00000000
00380000
007C0000
003C0000
00380000
ENDCHAR
STARTCHAR 00C7
ENCODING 199
SWIDTH 720 0
DWIDTH 28 0
BBX 27 28 0 0
BITMAP
7FFF8000
3FFFF000
1F00F800
0E003E00
0E001F00
0E000F80
0E000780
0E0003C0
0E0003C0
0E0003C0
0E0001E0
0E0001E0
FFFC01E0
7FFC01E0
0E0001E0
0E0001E0
0E0001E0
0E0001E0
0E0003C0
0E0003C0
0E0003C0
0E000780
0E000F00
0E001F00
0E003E00
1F01F800
3FFFE000
7FFF0000
ENDCHAR
STARTCHAR 00C8
ENCODING 200
SWIDTH 591 0
DWIDTH 23 0
BBX 22 39 1 1
BITMAP
007C00
006200
000200
000200
000400
001800
001000
001000
000000
000000
000000
FFFFF8
7FFFF8
3E0078
3C0018
3C0008
3C0000
3C0000
3C0000
3C0000
3C0000
3C0040
3C01C0
3FFFC0
3FFFC0
3C0040
3C0000
3C0000
3C0000
3C0000
3C0000
3C0000
3C0000
3C0000
3C0004
3C001C
3E007C
7FFFFC
FFFFFC
ENDCHAR
STARTCHAR 00C9
ENCODING 201
SWIDTH 591 0
DWIDTH 23 0
BBX 22 38 1 0
BITMAP
000100
000380
000780
000E00
001C00
003000
006000
000000
000000
000000
FFFFF8
7FFFF8
3E0078
3C0018
3C0008
3C0000
3C0000
3C0000
3C0000
3C0000
3C0040
3C01C0
3FFFC0
3FFFC0
3C0040
3C0000
3C0000
3C0000
3C0000
3C0000
3C0000
3C0000
3C0000
3C0004
3C001C
3E007C
7FFFFC
FFFFFC
ENDCHAR
STARTCHAR 00CA
ENCODING 202
SWIDTH 591 0
DWIDTH 23 0
BBX 22 37 1 0
BITMAP
003800
007C00
006E00
00C600
018300
010180
000000
000000
000000
FFFFF8
7FFFF8
3E0078
3C0018
3C0008
3C0000
3C0000
3C0000
3C0000
3C0000
3C0040
3C01C0
3FFFC0
3FFFC0
3C0040
3C0000
3C0000
3C0000
3C0000
3C0000
3C0000
3C0000
3C0000
3C0004
3C001C
3E007C
7FFFFC
FFFFFC
ENDCHAR
STARTCHAR 00CB
ENCODING 203
SWIDTH 591 0
DWIDTH 23 0
BBX 22 34 1 -6
BITMAP
FFFFF8
7FFFF8
3E0078
3C0018
3C0008
3C0000
3C0000
3C0000
3C0000
3C0000
3C0040
3C01C0
3FFFC0
3FFFC0
3C0040
3C0000
3C0000
3C0000
3C0000
3C0000
3C0000
3C0000
3C0000
3C0004
3C001C
3E007C
7FFFFC
FFFFFC
000000
000000
007000
00F800
007800
007000
ENDCHAR
STARTCHAR 00CC
ENCODING 204
SWIDTH 257 0
DWIDTH 10 0
BBX 8 40 1 0
BITMAP
1C
22
21
01
03
06
0C
08
00
00
00
00
FF
7F
3C
1C
1C
1C
1C
1C
1C
1C
1C
1C
1C
1C
1C
1C
1C
1C
1C
1C
1C
1C
1C
1C
1C
3C
7F
FF
ENDCHAR
STARTCHAR 00CD
ENCODING 205
SWIDTH 591 0
DWIDTH 23 0
BBX 22 42 1 0
BITMAP
007080
01FF80
01FF00
030000
000000
003800
007C00
006E00
00C600
018300
010180
000000
000000
000000
FFFFF8
7FFFF8
3E0078
3C0018
3C0008
3C0000
3C0000
3C0000
3C0000
3C0000
3C0040
3C01C0
3FFFC0
3FFFC0
3C0040
3C0000
3C0000
3C0000
3C0000
3C0000
3C0000
3C0000
3C0000
3C0004
3C001C
3E007C
7FFFFC
FFFFFC
ENDCHAR
STARTCHAR 00CE
ENCODING 206
SWIDTH 257 0
DWIDTH 10 0
BBX 8 35 1 -7
BITMAP
FF
7F
3C
1C
1C
1C
1C
1C
1C
1C
1C
1C
1C
1C
1C
1C
1C
1C
1C
1C
1C
1C
1C
1C
1C
3C
7F
FF
00
00
08
1C
3E
1C
08
ENDCHAR
STARTCHAR 00CF
ENCODING 207
SWIDTH 642 0
DWIDTH 25 0
BBX 27 36 -1 0
BITMAP
000E1000
001FF000
003FE000
00200000
00000000
00000000
00000000
00000000
FF001FE0
7F000FC0
3E000780
1E000700
0E000700
0F000E00
07800C00
07801C00
03C01800
01E03000
01E07000
00F06000
0078C000
003DC000
003F8000
001F0000
000E0000
000E0000
000E0000
000E0000
000E0000
000E0000
000E0000
000E0000
000F0000
000F0000
003F8000
003FC000
ENDCHAR
STARTCHAR 00D0
ENCODING 208
SWIDTH 694 0
DWIDTH 27 0
BBX 28 36 1 -1
BITMAP
000001E0
00000310
00000010
00000010
00000030
000000E0
00000100
FF003F80
FF003F80
3C000F00
3C000E00
3C000600
38000700
38000700
38000700
38000700
38000700
38000700
38000700
38000700
38000700
78000700
78000700
78000700
38000700
38000700
38000700
38000600
3C000E00
3C000E00
1C001C00
1E001C00
0F807800
07FFF000
03FFE000
007F0000
ENDCHAR
STARTCHAR 00D1
ENCODING 209
SWIDTH 694 0
DWIDTH 27 0
BBX 25 41 1 -1
BITMAP
00060000
00098000
00188000
00008000
00008000
00018000
00070000
00040000
00040000
00000000
00000000
00000000
FF003F80
FF003F80
3C000F00
3C000E00
3C000600
38000700
38000700
38000700
38000700
38000700
38000700
38000700
38000700
38000700
78000700
78000700
78000700
38000700
38000700
38000700
38000600
3C000E00
3C000E00
1C001C00
1E001C00
0F807800
07FFF000
03FFE000
007F0000
ENDCHAR
STARTCHAR 00D2
ENCODING 210
SWIDTH 745 0
DWIDTH 29 0
BBX 27 43 1 -1
BITMAP
30000000
78000000
3C000000
0E000000
07000000
018F0000
00CF0000
001F8000
0039C000
00204000
00402000
00000000
00000000
000F8000
00FFF000
03F9F800
07C03E00
0F000F00
1E000780
1C000780
3C0003C0
380003C0
780001E0
780001E0
780001E0
700001E0
F00001E0
F00001E0
F00000E0
F00001E0
700001E0
780001E0
780001E0
780001E0
380003C0
3C0003C0
1C000780
1E000780
0F000F00
07803E00
03F0FC00
00FFF000
001F8000
ENDCHAR
STARTCHAR 00D3
ENCODING 211
SWIDTH 745 0
DWIDTH 29 0
BBX 27 43 1 -1
BITMAP
000000C0
000001C0
000003C0
00000700
00000E00
000F1800
000F3000
001F8000
0039C000
00204000
00402000
00000000
00000000
000F8000
00FFF000
03F9F800
07C03E00
0F000F00
1E000780
1C000780
3C0003C0
380003C0
780001E0
780001E0
780001E0
700001E0
F00001E0
F00001E0
F00000E0
F00001E0
700001E0
780001E0
780001E0
780001E0
380003C0
3C0003C0
1C000780
1E000780
0F000F00
07803E00
03F0FC00
00FFF000
001F8000
ENDCHAR
STARTCHAR 00D4
ENCODING 212
SWIDTH 745 0
DWIDTH 29 0
BBX 27 38 1 -1
BITMAP
000F0000
000F0000
001F8000
0039C000
00204000
00402000
00000000
00000000
000F8000
00FFF000
03F9F800
07C03E00
0F000F00
1E000780
1C000780
3C0003C0
380003C0
780001E0
780001E0
780001E0
700001E0
F00001E0
F00001E0
F00000E0
F00001E0
700001E0
780001E0
780001E0
780001E0
380003C0
3C0003C0
1C000780
1E000780
0F000F00
07803E00
03F0FC00
00FFF000
001F8000
ENDCHAR
STARTCHAR 00D5
ENCODING 213
SWIDTH 745 0
DWIDTH 29 0
BBX 27 40 1 -1
BITMAP
000F8000
00088000
0000C000
0000C000
00008000
00030000
00020000
00040000
00000000
00000000
000F8000
00FFF000
03F9F800
07C03E00
0F000F00
1E000780
1C000780
3C0003C0
380003C0
780001E0
780001E0
780001E0
700001E0
F00001E0
F00001E0
F00000E0
F00001E0
700001E0
780001E0
780001E0
780001E0
380003C0
3C0003C0
1C000780
1E000780
0F000F00
07803E00
03F0FC00
00FFF000
001F8000
ENDCHAR
STARTCHAR 00D6
ENCODING 214
SWIDTH 745 0
DWIDTH 29 0
BBX 27 36 1 -1
BITMAP
00000780
00000440
00000040
00000040
000000C0
00000380
000F8400
00FFF800
03F9F800
07C03E00
0F000F00
1E000780
1C000780
3C0003C0
380003C0
780001E0
780001E0
780001E0
700001E0
F00001E0
F00001E0
F00000E0
F00001E0
700001E0
780001E0
780001E0
780001E0
380003C0
3C0003C0
1C000780
1E000780
0F000F00
07803E00
03F0FC00
00FFF000
001F8000
ENDCHAR
STARTCHAR 00D7
ENCODING 215
SWIDTH 591 0
DWIDTH 23 0
BBX 22 38 1 0
BITMAP
010000
03C000
01C000
00E000
007000
001800
000400
000000
000000
000000
FFFFF8
7FFFF8
3E0078
3C0018
3C0008
3C0000
3C0000
3C0000
3C0000
3C0000
3C0040
3C01C0
3FFFC0
3FFFC0
3C0040
3C0000
3C0000
3C0000
3C0000
3C0000
3C0000
3C0000
3C0000
3C0004
3C001C
3E007C
7FFFFC
FFFFFC
ENDCHAR
STARTCHAR 00D8
ENCODING 216
SWIDTH 694 0
DWIDTH 27 0
BBX 28 41 1 -1
BITMAP
00C00000
01E00000
00F00000
00780000
001C0000
000E01E0
00030310
00000010
00000010
00000030
000000E0
00000100
FF003F80
FF003F80
3C000F00
3C000E00
3C000600
38000700
38000700
38000700
38000700
38000700
38000700
38000700
38000700
38000700
78000700
78000700
78000700
38000700
38000700
38000700
38000600
3C000E00
3C000E00
1C001C00
1E001C00
0F807800
07FFF000
03FFE000
007F0000
ENDCHAR
STARTCHAR 00D9
ENCODING 217
SWIDTH 694 0
DWIDTH 27 0
BBX 28 41 1 -1
BITMAP
00007000
0000F000
0001E000
0001C000
00030000
000601E0
00080310
00000010
00000010
00000030
000000E0
00000100
FF003F80
FF003F80
3C000F00
3C000E00
3C000600
38000700
38000700
38000700
38000700
38000700
38000700
38000700
38000700
38000700
78000700
78000700
78000700
38000700
38000700
38000700
38000600
3C000E00
3C000E00
1C001C00
1E001C00
0F807800
07FFF000
03FFE000
007F0000
ENDCHAR
STARTCHAR 00DA
ENCODING 218
SWIDTH 694 0
DWIDTH 27 0
BBX 25 39 1 -1
BITMAP
00004000
0001E000
0003C000
00078000
000E0000
001C0000
00100000
00200000
00000000
00000000
FF003F80
FF003F80
3C000F00
3C000E00
3C000600
38000700
38000700
38000700
38000700
38000700
38000700
38000700
38000700
38000700
78000700
78000700
78000700
38000700
38000700
38000700
38000600
3C000E00
3C000E00
1C001C00
1E001C00
0F807800
07FFF000
03FFE000
007F0000
ENDCHAR
STARTCHAR 00DB
ENCODING 219
SWIDTH 694 0
DWIDTH 27 0
BBX 25 37 1 -1
BITMAP
00001000
001FF000
003FE000
0061C000
00400000
00000000
00000000
00000000
FF003F80
FF003F80
3C000F00
3C000E00
3C000600
38000700
38000700
38000700
38000700
38000700
38000700
38000700
38000700
38000700
78000700
78000700
78000700
38000700
38000700
38000700
38000600
3C000E00
3C000E00
1C001C00
1E001C00
0F807800
07FFF000
03FFE000
007F0000
ENDCHAR
STARTCHAR 00DC
ENCODING 220
SWIDTH 694 0
DWIDTH 27 0
BBX 28 36 1 -1
BITMAP
000001E0
00000310
00000010
00000010
00000030
000000E0
00000100
FF003F80
FF003F80
3C000F00
3C000E00
3C000600
38000700
38000700
38000700
38000700
38000700
38000700
38000700
38000700
38000700
78000700
78000700
78000700
38000700
38000700
38000700
38000600
3C000E00
3C000E00
1C001C00
1E001C00
0F807800
07FFF000
03FFE000
007F0000
ENDCHAR
STARTCHAR 00DD
ENCODING 221
SWIDTH 642 0
DWIDTH 25 0
BBX 27 38 -1 0
BITMAP
00004000
0000E000
0001E000
0003C000
00070000
000C0000
00180000
00000000
00000000
00000000
FF001FE0
7F000FC0
3E000780
1E000700
0E000700
0F000E00
07800C00
07801C00
03C01800
01E03000
01E07000
00F06000
0078C000
003DC000
003F8000
001F0000
000E0000
000E0000
000E0000
000E0000
000E0000
000E0000
000E0000
000E0000
000F0000
000F0000
003F8000
003FC000
ENDCHAR
STARTCHAR 00DE
ENCODING 222
SWIDTH 591 0
DWIDTH 23 0
BBX 22 39 1 1
BITMAP
007C00
006200
000200
000200
000400
001800
001000
001000
000000
000000
000000
FFFFF8
7FFFF8
3E0078
3C0018
3C0008
3C0000
3C0000
3C0000
3C0000
3C0000
3C0040
3C01C0
3FFFC0
3FFFC0
3C0040
3C0000
3C0000
3C0000
3C0000
3C0000
3C0000
3C0000
3C0000
3C0004
3C001C
3E007C
7FFFFC
FFFFFC
ENDCHAR
STARTCHAR 00DF
ENCODING 223
SWIDTH 642 0
DWIDTH 25 0
BBX 23 29 1 0
BITMAP
003E00
01FFC0
0781E0
0E0070
1C0078
1C0038
1C003C
38003C
380038
380038
380078
3800F0
380FC0
38FF80
387FE0
380078
38003C
38001E
38000E
38400E
38E00E
39C00E
39800E
39800E
39801E
39C03C
38E078
FCFFF0
FC3FC0
ENDCHAR
STARTCHAR 00E0
ENCODING 224
SWIDTH 642 0
DWIDTH 25 0
BBX 26 38 0 0
BITMAP
00800000
01E00000
00F00000
00780000
001C0000
000E0000
00030000
00000000
00000000
00080000
001C0000
001E0000
003E0000
003F0000
00770000
00678000
00E78000
00E3C000
01C3C000
01C1E000
0181E000
0380E000
0300F000
0700F000
07007800
06007800
0FFFF800
0FFFFC00
1C003C00
1C001C00
18001E00
38001E00
38000E00
38000F00
78000F00
78000F00
FC001F80
FC003FC0
ENDCHAR
STARTCHAR 00E1
ENCODING 225
SWIDTH 642 0
DWIDTH 25 0
BBX 26 38 0 0
BITMAP
00008000
0001C000
0003C000
00078000
000E0000
00180000
00300000
00000000
00000000
00080000
001C0000
001E0000
003E0000
003F0000
00770000
00678000
00E78000
00E3C000
01C3C000
01C1E000
0181E000
0380E000
0300F000
0700F000
07007800
06007800
0FFFF800
0FFFFC00
1C003C00
1C001C00
18001E00
38001E00
38000E00
38000F00
78000F00
78000F00
FC001F80
FC003FC0
ENDCHAR
STARTCHAR 00E2
ENCODING 226
SWIDTH 642 0
DWIDTH 25 0
BBX 26 37 0 0
BITMAP
001E0000
003E0000
003F0000
00638000
00C18000
00804000
00000000
00000000
00080000
001C0000
001E0000
003E0000
003F0000
00770000
00678000
00E78000
00E3C000
01C3C000
01C1E000
0181E000
0380E000
0300F000
0700F000
07007800
06007800
0FFFF800
0FFFFC00
1C003C00
1C001C00
18001E00
38001E00
38000E00
38000F00
78000F00
78000F00
FC001F80
FC003FC0
ENDCHAR
STARTCHAR 00E3
ENCODING 227
SWIDTH 642 0
DWIDTH 25 0
BBX 26 36 0 0
BITMAP
00384000
00FFC000
00FF8000
00800000
00000000
00000000
00000000
00080000
001C0000
001E0000
003E0000
003F0000
00770000
00678000
00E78000
00E3C000
01C3C000
01C1E000
0181E000
0380E000
0300F000
0700F000
07007800
06007800
0FFFF800
0FFFFC00
1C003C00
1C001C00
18001E00
38001E00
38000E00
38000F00
78000F00
78000F00
FC001F80
FC003FC0
ENDCHAR
STARTCHAR 00E4
ENCODING 228
SWIDTH 642 0
DWIDTH 25 0
BBX 26 39 0 1
BITMAP
003E0000
00310000
00010000
00010000
00020000
000C0000
00080000
00080000
00000000
00000000
00080000
001C0000
001E0000
003E0000
003F0000
00770000
00678000
00E78000
00E3C000
01C3C000
01C1E000
0181E000
0380E000
0300F000
0700F000
07007800
06007800
0FFFF800
0FFFFC00
1C003C00
1C001C00
18001E00
38001E00
38000E00
38000F00
78000F00
78000F00
FC001F80
FC003FC0
ENDCHAR
STARTCHAR 00E5
ENCODING 229
SWIDTH 642 0
DWIDTH 25 0
BBX 26 35 0 -6
BITMAP
00080000
001C0000
001E0000
003E0000
003F0000
00770000
00678000
00E78000
00E3C000
01C3C000
01C1E000
0181E000
0380E000
0300F000
0700F000
07007800
06007800
0FFFF800
0FFFFC00
1C003C00
1C001C00
18001E00
38001E00
38000E00
38000F00
78000F00
78000F00
FC001F80
FC003FC0
00000000
00000000
00380000
007C0000
003C0000
00380000
ENDCHAR
STARTCHAR 00E6
ENCODING 230
SWIDTH 642 0
DWIDTH 25 0
BBX 26 35 0 0
BITMAP
01008000
00C18000
00FF0000
007E0000
00000000
00000000
00080000
001C0000
001E0000
003E0000
003F0000
00770000
00678000
00E78000
00E3C000
01C3C000
01C1E000
0181E000
0380E000
0300F000
0700F000
07007800
06007800
0FFFF800
0FFFFC00
1C003C00
1C001C00
18001E00
38001E00
38000E00
38000F00
78000F00
78000F00
FC001F80
FC003FC0
ENDCHAR
STARTCHAR 00E7
ENCODING 231
SWIDTH 694 0
DWIDTH 27 0
BBX 25 37 1 -8
BITMAP
000FC000
007FF800
01F0FE00
07C01F00
0F000F00
1E000700
1E000300
3C000300
3C000100
78000000
78000000
78000000
F8000000
F0000000
F0000000
F0000000
F0000000
F0000000
78000000
78000000
78000000
7C000000
3C000080
3E000180
1F000380
0F800700
07C01E00
03FFFC00
01FFF000
003F8000
00040000
00078000
0003C000
0000E000
0000E000
0070C000
003FC000
ENDCHAR
STARTCHAR 00E8
ENCODING 232
SWIDTH 591 0
DWIDTH 23 0
BBX 22 38 1 0
BITMAP
010000
03C000
01C000
00E000
007000
001800
000400
000000
000000
000000
FFFFF8
7FFFF8
3E0078
3C0018
3C0008
3C0000
3C0000
3C0000
3C0000
3C0000
3C0040
3C01C0
3FFFC0
3FFFC0
3C0040
3C0000
3C0000
3C0000
3C0000
3C0000
3C0000
3C0000
3C0000
3C0004
3C001C
3E007C
7FFFFC
FFFFFC
ENDCHAR
STARTCHAR 00E9
ENCODING 233
SWIDTH 591 0
DWIDTH 23 0
BBX 22 38 1 0
BITMAP
000100
000380
000780
000E00
001C00
003000
006000
000000
000000
000000
FFFFF8
7FFFF8
3E0078
3C0018
3C0008
3C0000
3C0000
3C0000
3C0000
3C0000
3C0040
3C01C0
3FFFC0
3FFFC0
3C0040
3C0000
3C0000
3C0000
3C0000
3C0000
3C0000
3C0000
3C0000
3C0004
3C001C
3E007C
7FFFFC
FFFFFC
ENDCHAR
STARTCHAR 00EA
ENCODING 234
SWIDTH 591 0
DWIDTH 23 0
BBX 22 37 1 0
BITMAP
003800
007C00
006E00
00C600
018300
010180
000000
000000
000000
FFFFF8
7FFFF8
3E0078
3C0018
3C0008
3C0000
3C0000
3C0000
3C0000
3C0000
3C0040
3C01C0
3FFFC0
3FFFC0
3C0040
3C0000
3C0000
3C0000
3C0000
3C0000
3C0000
3C0000
3C0000
3C0004
3C001C
3E007C
7FFFFC
FFFFFC
ENDCHAR
STARTCHAR 00EB
ENCODING 235
SWIDTH 591 0
DWIDTH 23 0
BBX 22 36 1 0
BITMAP
000100
01F300
03FE00
027E00
040000
000000
000000
000000
FFFFF8
7FFFF8
3E0078
3C0018
3C0008
3C0000
3C0000
3C0000
3C0000
3C0000
3C0040
3C01C0
3FFFC0
3FFFC0
3C0040
3C0000
3C0000
3C0000
3C0000
3C0000
3C0000
3C0000
3C0000
3C0004
3C001C
3E007C
7FFFFC
FFFFFC
ENDCHAR
STARTCHAR 00EC
ENCODING 236
SWIDTH 257 0
DWIDTH 10 0
BBX 9 38 0 0
BITMAP
4000
E000
F000
3800
1C00
0600
0300
0000
0000
0000
7F80
3F80
1E00
0E00
0E00
0E00
0E00
0E00
0E00
0E00
0E00
0E00
0E00
0E00
0E00
0E00
0E00
0E00
0E00
0E00
0E00
0E00
0E00
0E00
0E00
1E00
3F80
7F80
ENDCHAR
STARTCHAR 00ED
ENCODING 237
SWIDTH 257 0
DWIDTH 10 0
BBX 10 38 1 0
BITMAP
0080
03C0
0380
0700
0E00
1800
2000
0000
0000
0000
FF00
7F00
3C00
1C00
1C00
1C00
1C00
1C00
1C00
1C00
1C00
1C00
1C00
1C00
1C00
1C00
1C00
1C00
1C00
1C00
1C00
1C00
1C00
1C00
1C00
3C00
7F00
FF00
ENDCHAR
STARTCHAR 00EE
ENCODING 238
SWIDTH 257 0
DWIDTH 10 0
BBX 10 37 0 0
BITMAP
0E00
1F00
3B00
3180
60C0
C040
0000
0000
0000
7F80
3F80
1E00
0E00
0E00
0E00
0E00
0E00
0E00
0E00
0E00
0E00
0E00
0E00
0E00
0E00
0E00
0E00
0E00
0E00
0E00
0E00
0E00
0E00
0E00
1E00
3F80
7F80
ENDCHAR
STARTCHAR 00EF
ENCODING 239
SWIDTH 257 0
DWIDTH 10 0
BBX 10 36 0 0
BITMAP
0040
7C40
FFC0
CF80
8000
0000
0000
0000
7F80
3F80
1E00
0E00
0E00
0E00
0E00
0E00
0E00
0E00
0E00
0E00
0E00
0E00
0E00
0E00
0E00
0E00
0E00
0E00
0E00
0E00
0E00
0E00
0E00
1E00
3F80
7F80
ENDCHAR
STARTCHAR 00F0
ENCODING 240
SWIDTH 642 0
DWIDTH 25 0
BBX 26 42 0 0
BITMAP
00384000
00FFC000
00FF8000
01800000
00000000
00000000
00000000
01008000
00C18000
00FF0000
007E0000
00000000
00000000
00080000
001C0000
001E0000
003E0000
003F0000
00770000
00678000
00E78000
00E3C000
01C3C000
01C1E000
0181E000
0380E000
0300F000
0700F000
07007800
06007800
0FFFF800
0FFFFC00
1C003C00
1C001C00
18001E00
38001E00
38000E00
38000F00
78000F00
78000F00
FC001F80
FC003FC0
ENDCHAR
STARTCHAR 00F1
ENCODING 241
SWIDTH 720 0
DWIDTH 28 0
BBX 27 28 0 0
BITMAP
7FFF8000
3FFFF000
1F00F800
0E003E00
0E001F00
0E000F80
0E000780
0E0003C0
0E0003C0
0E0003C0
0E0001E0
0E0001E0
FFFC01E0
7FFC01E0
0E0001E0
0E0001E0
0E0001E0
0E0001E0
0E0003C0
0E0003C0
0E0003C0
0E000780
0E000F00
0E001F00
0E003E00
1F01F800
3FFFE000
7FFF0000
ENDCHAR
STARTCHAR 00F2
ENCODING 242
SWIDTH 745 0
DWIDTH 29 0
BBX 27 39 1 -1
BITMAP
00200000
00700000
00780000
003C0000
000E0000
00070000
00018000
00000000
00000000
000F8000
00FFF000
03F9F800
07C03E00
0F000F00
1E000780
1C000780
3C0003C0
380003C0
780001E0
780001E0
780001E0
700001E0
F00001E0
F00001E0
F00000E0
F00001E0
700001E0
780001E0
780001E0
780001E0
380003C0
3C0003C0
1C000780
1E000780
0F000F00
07803E00
03F0FC00
00FFF000
001F8000
ENDCHAR
STARTCHAR 00F3
ENCODING 243
SWIDTH 745 0
DWIDTH 29 0
BBX 27 39 1 -1
BITMAP
00004000
0000E000
0001E000
0003C000
00070000
000E0000
00180000
00000000
00000000
000F8000
00FFF000
03F9F800
07C03E00
0F000F00
1E000780
1C000780
3C0003C0
380003C0
780001E0
780001E0
780001E0
700001E0
F00001E0
F00001E0
F00000E0
F00001E0
700001E0
780001E0
780001E0
780001E0
380003C0
3C0003C0
1C000780
1E000780
0F000F00
07803E00
03F0FC00
00FFF000
001F8000
ENDCHAR
STARTCHAR 00F4
ENCODING 244
SWIDTH 745 0
DWIDTH 29 0
BBX 27 38 1 -1
BITMAP
000F0000
000F0000
001F8000
0039C000
00204000
00402000
00000000
00000000
000F8000
00FFF000
03F9F800
07C03E00
0F000F00
1E000780
1C000780
3C0003C0
380003C0
780001E0
780001E0
780001E0
700001E0
F00001E0
F00001E0
F00000E0
F00001E0
700001E0
780001E0
780001E0
780001E0
380003C0
3C0003C0
1C000780
1E000780
0F000F00
07803E00
03F0FC00
00FFF000
001F8000
ENDCHAR
STARTCHAR 00F5
ENCODING 245
SWIDTH 745 0
DWIDTH 29 0
BBX 27 37 1 -1
BITMAP
001C2000
003FE000
007FC000
00400000
00000000
00000000
00000000
000F8000
00FFF000
03F9F800
07C03E00
0F000F00
1E000780
1C000780
3C0003C0
380003C0
780001E0
780001E0
780001E0
700001E0
F00001E0
F00001E0
F00000E0
F00001E0
700001E0
780001E0
780001E0
780001E0
380003C0
3C0003C0
1C000780
1E000780
0F000F00
07803E00
03F0FC00
00FFF000
001F8000
ENDCHAR
STARTCHAR 00F6
ENCODING 246
SWIDTH 745 0
DWIDTH 29 0
BBX 27 37 1 -1
BITMAP
00204000
0070E000
0071E000
0070E000
00000000
00000000
00000000
000F8000
00FFF000
03F9F800
07C03E00
0F000F00
1E000780
1C000780
3C0003C0
380003C0
780001E0
780001E0
780001E0
700001E0
F00001E0
F00001E0
F00000E0
F00001E0
700001E0
780001E0
780001E0
780001E0
380003C0
3C0003C0
1C000780
1E000780
0F000F00
07803E00
03F0FC00
00FFF000
001F8000
ENDCHAR
STARTCHAR 00F7
ENCODING 247
SWIDTH 745 0
DWIDTH 29 0
BBX 27 36 1 -1
BITMAP
00000780
00000440
00000040
00000040
000000C0
00000380
000F8400
00FFF800
03F9F800
07C03E00
0F000F00
1E000780
1C000780
3C0003C0
380003C0
780001E0
780001E0
780001E0
700001E0
F00001E0
F00001E0
F00000E0
F00001E0
700001E0
780001E0
780001E0
780001E0
380003C0
3C0003C0
1C000780
1E000780
0F000F00
07803E00
03F0FC00
00FFF000
001F8000
ENDCHAR
STARTCHAR 00F8
ENCODING 248
SWIDTH 694 0
DWIDTH 27 0
BBX 25 35 1 -7
BITMAP
FF003F80
FF003F80
3C000F00
3C000E00
3C000600
38000700
38000700
38000700
38000700
38000700
38000700
38000700
38000700
38000700
78000700
78000700
78000700
38000700
38000700
38000700
38000600
3C000E00
3C000E00
1C001C00
1E001C00
0F807800
07FFF000
03FFE000
007F0000
00000000
00000000
001C0000
003E0000
001E0000
001C0000
ENDCHAR
STARTCHAR 00F9
ENCODING 249
SWIDTH 694 0
DWIDTH 27 0
BBX 25 39 1 -1
BITMAP
00400000
00E00000
00F00000
00780000
001C0000
00060000
00030000
00000000
00000000
00000000
FF003F80
FF003F80
3C000F00
3C000E00
3C000600
38000700
38000700
38000700
38000700
38000700
38000700
38000700
38000700
38000700
78000700
78000700
78000700
38000700
38000700
38000700
38000600
3C000E00
3C000E00
1C001C00
1E001C00
0F807800
07FFF000
03FFE000
007F0000
ENDCHAR
STARTCHAR 00FA
ENCODING 250
SWIDTH 694 0
DWIDTH 27 0
BBX 25 39 1 -1
BITMAP
00004000
0001E000
0003C000
00078000
000E0000
001C0000
00100000
00200000
00000000
00000000
FF003F80
FF003F80
3C000F00
3C000E00
3C000600
38000700
38000700
38000700
38000700
38000700
38000700
38000700
38000700
38000700
78000700
78000700
78000700
38000700
38000700
38000700
38000600
3C000E00
3C000E00
1C001C00
1E001C00
0F807800
07FFF000
03FFE000
007F0000
ENDCHAR
STARTCHAR 00FB
ENCODING 251
SWIDTH 694 0
DWIDTH 27 0
BBX 25 41 1 -1
BITMAP
00060000
00098000
00188000
00008000
00008000
00018000
00070000
00040000
00040000
00000000
00000000
00000000
FF003F80
FF003F80
3C000F00
3C000E00
3C000600
38000700
38000700
38000700
38000700
38000700
38000700
38000700
38000700
38000700
78000700
78000700
78000700
38000700
38000700
38000700
38000600
3C000E00
3C000E00
1C001C00
1E001C00
0F807800
07FFF000
03FFE000
007F0000
ENDCHAR
STARTCHAR 00FC
ENCODING 252
SWIDTH 694 0
DWIDTH 27 0
BBX 25 37 1 -1
BITMAP
00608000
00F1C000
00F1C000
0061C000
00000000
00000000
00000000
00000000
FF003F80
FF003F80
3C000F00
3C000E00
3C000600
38000700
38000700
38000700
38000700
38000700
38000700
38000700
38000700
38000700
78000700
78000700
78000700
38000700
38000700
38000700
38000600
3C000E00
3C000E00
1C001C00
1E001C00
0F807800
07FFF000
03FFE000
007F0000
ENDCHAR
STARTCHAR 00FD
ENCODING 253
SWIDTH 642 0
DWIDTH 25 0
BBX 27 39 -1 1
BITMAP
001F0000
00188000
00008000
00008000
00010000
00060000
00040000
00040000
00000000
00000000
00000000
FF001FE0
7F000FC0
3E000780
1E000700
0E000700
0F000E00
07800C00
07801C00
03C01800
01E03000
01E07000
00F06000
0078C000
003DC000
003F8000
001F0000
000E0000
000E0000
000E0000
000E0000
000E0000
000E0000
000E0000
000E0000
000F0000
000F0000
003F8000
003FC000
ENDCHAR
STARTCHAR 00FE
ENCODING 254
SWIDTH 591 0
DWIDTH 23 0
BBX 22 36 1 0
BITMAP
000100
01F300
03FE00
027E00
040000
000000
000000
000000
FFFFF8
7FFFF8
3E0078
3C0018
3C0008
3C0000
3C0000
3C0000
3C0000
3C0000
3C0040
3C01C0
3FFFC0
3FFFC0
3C0040
3C0000
3C0000
3C0000
3C0000
3C0000
3C0000
3C0000
3C0000
3C0004
3C001C
3E007C
7FFFFC
FFFFFC
ENDCHAR
STARTCHAR 00FF
ENCODING 255
SWIDTH 642 0
DWIDTH 25 0
BBX 27 37 -1 0
BITMAP
01C00000
01E00000
00F00000
00380000
000C0000
00060000
00010000
00000000
00000000
FF001FE0
7F000FC0
3E000780
1E000700
0E000700
0F000E00
07800C00
07801C00
03C01800
01E03000
01E07000
00F06000
0078C000
003DC000
003F8000
001F0000
000E0000
000E0000
000E0000
000E0000
000E0000
000E0000
000E0000
000E0000
000F0000
000F0000
003F8000
003FC000
ENDCHAR
STARTCHAR 0106
ENCODING 262
SWIDTH 694 0
DWIDTH 27 0
BBX 0 0 0 0
BITMAP
ENDCHAR
STARTCHAR 0107
ENCODING 263
SWIDTH 437 0
DWIDTH 17 0
BBX 0 0 0 0
BITMAP
ENDCHAR
STARTCHAR 010C
ENCODING 268
SWIDTH 694 0
DWIDTH 27 0
BBX 0 0 0 0
BITMAP
ENDCHAR
STARTCHAR 010D
ENCODING 269
SWIDTH 437 0
DWIDTH 17 0
BBX 0 0 0 0
BITMAP
ENDCHAR
STARTCHAR 0111
ENCODING 273
SWIDTH 540 0
DWIDTH 21 0
BBX 0 0 0 0
BITMAP
ENDCHAR
STARTCHAR 011E
ENCODING 286
SWIDTH 771 0
DWIDTH 30 0
BBX 0 0 0 0
BITMAP
ENDCHAR
STARTCHAR 011F
ENCODING 287
SWIDTH 488 0
DWIDTH 19 0
BBX 0 0 0 0
BITMAP
ENDCHAR
STARTCHAR 0130
ENCODING 304
SWIDTH 257 0
DWIDTH 10 0
BBX 0 0 0 0
BITMAP
ENDCHAR
STARTCHAR 0131
ENCODING 305
SWIDTH 231 0
DWIDTH 9 0
BBX 0 0 0 0
BITMAP
ENDCHAR
STARTCHAR 0141
ENCODING 321
SWIDTH 565 0
DWIDTH 22 0
BBX 0 0 0 0
BITMAP
ENDCHAR
STARTCHAR 0142
ENCODING 322
SWIDTH 231 0
DWIDTH 9 0
BBX 0 0 0 0
BITMAP
ENDCHAR
STARTCHAR 0152
ENCODING 338
SWIDTH 591 0
DWIDTH 23 0
BBX 22 44 1 -7
BITMAP
003800
007C00
006E00
00C600
018300
010180
000000
000000
000000
FFFFF8
7FFFF8
3E0078
3C0018
3C0008
3C0000
3C0000
3C0000
3C0000
3C0000
3C0040
3C01C0
3FFFC0
3FFFC0
3C0040
3C0000
3C0000
3C0000
3C0000
3C0000
3C0000
3C0000
3C0000
3C0004
3C001C
3E007C
7FFFFC
FFFFFC
000000
000000
001000
003C00
003C00
003C00
001800
ENDCHAR
STARTCHAR 0153
ENCODING 339
SWIDTH 642 0
DWIDTH 25 0
BBX 27 34 -1 -6
BITMAP
FF001FE0
7F000FC0
3E000780
1E000700
0E000700
0F000E00
07800C00
07801C00
03C01800
01E03000
01E07000
00F06000
0078C000
003DC000
003F8000
001F0000
000E0000
000E0000
000E0000
000E0000
000E0000
000E0000
000E0000
000E0000
000F0000
000F0000
003F8000
003FC000
00000000
00000000
00060000
000F0000
000F0000
000F0000
ENDCHAR
STARTCHAR 015E
ENCODING 350
SWIDTH 565 0
DWIDTH 22 0
BBX 0 0 0 0
BITMAP
ENDCHAR
STARTCHAR 015F
ENCODING 351
SWIDTH 360 0
DWIDTH 14 0
BBX 0 0 0 0
BITMAP
ENDCHAR
STARTCHAR 0160
ENCODING 352
SWIDTH 591 0
DWIDTH 23 0
BBX 23 42 0 0
BITMAP
600000
F00000
780000
1C0000
0E0000
031C00
00BE00
003700
006300
00C180
0080C0
000000
000000
000000
7FFFFC
3FFFFC
1F003C
1E000C
1E0004
1E0000
1E0000
1E0000
1E0000
1E0000
1E0020
1E00E0
1FFFE0
1FFFE0
1E0020
1E0000
1E0000
1E0000
1E0000
1E0000
1E0000
1E0000
1E0000
1E0002
1E000E
1F003E
3FFFFE
7FFFFE
ENDCHAR
STARTCHAR 0161
ENCODING 353
SWIDTH 642 0
DWIDTH 25 0
BBX 27 38 -1 0
BITMAP
00004000
0000E000
0001E000
0003C000
00070000
000C0000
00180000
00000000
00000000
00000000
FF001FE0
7F000FC0
3E000780
1E000700
0E000700
0F000E00
07800C00
07801C00
03C01800
01E03000
01E07000
00F06000
0078C000
003DC000
003F8000
001F0000
000E0000
000E0000
000E0000
000E0000
000E0000
000E0000
000E0000
000E0000
000F0000
000F0000
003F8000
003FC000
ENDCHAR
STARTCHAR 0178
ENCODING 376
SWIDTH 745 0
DWIDTH 29 0
BBX 27 43 1 -1
BITMAP
00070000
00088000
0008C000
0000C000
00008000
00018000
00020000
00040780
00000440
00000040
00000040
000000C0
00000380
000F8400
00FFF800
03F9F800
07C03E00
0F000F00
1E000780
1C000780
3C0003C0
380003C0
780001E0
780001E0
780001E0
700001E0
F00001E0
F00001E0
F00000E0
F00001E0
700001E0
780001E0
780001E0
780001E0
380003C0
3C0003C0
1C000780
1E000780
0F000F00
07803E00
03F0FC00
00FFF000
001F8000
ENDCHAR
STARTCHAR 017D
ENCODING 381
SWIDTH 540 0
DWIDTH 21 0
BBX 0 0 0 0
BITMAP
ENDCHAR
STARTCHAR 017E
ENCODING 382
SWIDTH 360 0
DWIDTH 14 0
BBX 0 0 0 0
BITMAP
ENDCHAR
STARTCHAR 0192
ENCODING 402
SWIDTH 642 0
DWIDTH 25 0
BBX 26 42 0 0
BITMAP
00000180
000003C0
00000780
00000F00
00001C00
001E3000
003E6000
003F0000
00638000
00C18000
00804000
00000000
00000000
00080000
001C0000
001E0000
003E0000
003F0000
00770000
00678000
00E78000
00E3C000
01C3C000
01C1E000
0181E000
0380E000
0300F000
0700F000
07007800
06007800
0FFFF800
0FFFFC00
1C003C00
1C001C00
18001E00
38001E00
38000E00
38000F00
78000F00
78000F00
FC001F80
FC003FC0
ENDCHAR
STARTCHAR 02C6
ENCODING 710
SWIDTH 642 0
DWIDTH 25 0
BBX 26 35 0 0
BITMAP
01008000
00C18000
00FF0000
007E0000
00000000
00000000
00080000
001C0000
001E0000
003E0000
003F0000
00770000
00678000
00E78000
00E3C000
01C3C000
01C1E000
0181E000
0380E000
0300F000
0700F000
07007800
06007800
0FFFF800
0FFFFC00
1C003C00
1C001C00
18001E00
38001E00
38000E00
38000F00
78000F00
78000F00
FC001F80
FC003FC0
ENDCHAR
STARTCHAR 02C7
ENCODING 711
SWIDTH 488 0
DWIDTH 19 0
BBX 0 0 0 0
BITMAP
ENDCHAR
STARTCHAR 02DA
ENCODING 730
SWIDTH 488 0
DWIDTH 19 0
BBX 0 0 0 0
BITMAP
ENDCHAR
STARTCHAR 02DB
ENCODING 731
SWIDTH 488 0
DWIDTH 19 0
BBX 0 0 0 0
BITMAP
ENDCHAR
STARTCHAR 02DC
ENCODING 732
SWIDTH 745 0
DWIDTH 29 0
BBX 27 44 1 -1
BITMAP
00001E00
00003100
00000100
00000100
00000200
00000C00
000F0800
000F0800
001F8000
0039C000
00204000
00402000
00000000
00000000
000F8000
00FFF000
03F9F800
07C03E00
0F000F00
1E000780
1C000780
3C0003C0
380003C0
780001E0
780001E0
780001E0
700001E0
F00001E0
F00001E0
F00000E0
F00001E0
700001E0
780001E0
780001E0
780001E0
380003C0
3C0003C0
1C000780
1E000780
0F000F00
07803E00
03F0FC00
00FFF000
001F8000
ENDCHAR
STARTCHAR 03A9
ENCODING 937
SWIDTH 745 0
DWIDTH 29 0
BBX 0 0 0 0
BITMAP
ENDCHAR
STARTCHAR 03C0
ENCODING 960
SWIDTH 642 0
DWIDTH 25 0
BBX 0 0 0 0
BITMAP
ENDCHAR
STARTCHAR 2013
ENCODING 8211
SWIDTH 745 0
DWIDTH 29 0
BBX 27 43 1 -1
BITMAP
000000C0
000001C0
000003C0
00000700
00000E00
000F1800
000F3000
001F8000
0039C000
00204000
00402000
00000000
00000000
000F8000
00FFF000
03F9F800
07C03E00
0F000F00
1E000780
1C000780
3C0003C0
380003C0
780001E0
780001E0
780001E0
700001E0
F00001E0
F00001E0
F00000E0
F00001E0
700001E0
780001E0
780001E0
780001E0
380003C0
3C0003C0
1C000780
1E000780
0F000F00
07803E00
03F0FC00
00FFF000
001F8000
ENDCHAR
STARTCHAR 2014
ENCODING 8212
SWIDTH 745 0
DWIDTH 29 0
BBX 27 43 1 -1
BITMAP
30000000
78000000
3C000000
0E000000
07000000
018F0000
00CF0000
001F8000
0039C000
00204000
00402000
00000000
00000000
000F8000
00FFF000
03F9F800
07C03E00
0F000F00
1E000780
1C000780
3C0003C0
380003C0
780001E0
780001E0
780001E0
700001E0
F00001E0
F00001E0
F00000E0
F00001E0
700001E0
780001E0
780001E0
780001E0
380003C0
3C0003C0
1C000780
1E000780
0F000F00
07803E00
03F0FC00
00FFF000
001F8000
ENDCHAR
STARTCHAR 2018
ENCODING 8216
SWIDTH 257 0
DWIDTH 10 0
BBX 4 10 4 18
BITMAP
10
20
60
40
80
80
E0
F0
F0
F0
ENDCHAR
STARTCHAR 2019
ENCODING 8217
SWIDTH 257 0
DWIDTH 10 0
BBX 5 10 2 18
BITMAP
70
F8
F8
F8
18
18
10
10
20
60
ENDCHAR
STARTCHAR 201A
ENCODING 8218
SWIDTH 642 0
DWIDTH 25 0
BBX 26 36 0 0
BITMAP
00384000
00FFC000
00FF8000
00800000
00000000
00000000
00000000
00080000
001C0000
001E0000
003E0000
003F0000
00770000
00678000
00E78000
00E3C000
01C3C000
01C1E000
0181E000
0380E000
0300F000
0700F000
07007800
06007800
0FFFF800
0FFFFC00
1C003C00
1C001C00
18001E00
38001E00
38000E00
38000F00
78000F00
78000F00
FC001F80
FC003FC0
ENDCHAR
STARTCHAR 201C
ENCODING 8220
SWIDTH 591 0
DWIDTH 23 0
BBX 23 42 0 0
BITMAP
600000
F00000
780000
1C0000
0E0000
031C00
00BE00
003700
006300
00C180
0080C0
000000
000000
000000
7FFFFC
3FFFFC
1F003C
1E000C
1E0004
1E0000
1E0000
1E0000
1E0000
1E0000
1E0020
1E00E0
1FFFE0
1FFFE0
1E0020
1E0000
1E0000
1E0000
1E0000
1E0000
1E0000
1E0000
1E0000
1E0002
1E000E
1F003E
3FFFFE
7FFFFE
ENDCHAR
STARTCHAR 201D
ENCODING 8221
SWIDTH 591 0
DWIDTH 23 0
BBX 22 44 1 0
BITMAP
000070
000088
000188
000008
000008
000018
000060
003840
007C40
006E00
00C600
018300
010180
000000
000000
000000
FFFFF8
7FFFF8
3E0078
3C0018
3C0008
3C0000
3C0000
3C0000
3C0000
3C0000
3C0040
3C01C0
3FFFC0
3FFFC0
3C0040
3C0000
3C0000
3C0000
3C0000
3C0000
3C0000
3C0000
3C0000
3C0004
3C001C
3E007C
7FFFFC
FFFFFC
ENDCHAR
STARTCHAR 201E
ENCODING 8222
SWIDTH 642 0
DWIDTH 25 0
BBX 26 42 0 0
BITMAP
60000000
70000000
78000000
1C000000
0E000000
031E0000
00BE0000
003F0000
00638000
00C18000
00804000
00000000
00000000
00080000
001C0000
001E0000
003E0000
003F0000
00770000
00678000
00E78000
00E3C000
01C3C000
01C1E000
0181E000
0380E000
0300F000
0700F000
07007800
06007800
0FFFF800
0FFFFC00
1C003C00
1C001C00
18001E00
38001E00
38000E00
38000F00
78000F00
78000F00
FC001F80
FC003FC0
ENDCHAR
STARTCHAR 2020
ENCODING 8224
SWIDTH 745 0
DWIDTH 29 0
BBX 27 36 1 -7
BITMAP
000F8000
00FFF000
03F9F800
07C03E00
0F000F00
1E000780
1C000780
3C0003C0
380003C0
780001E0
780001E0
780001E0
700001E0
F00001E0
F00001E0
F00000E0
F00001E0
700001E0
780001E0
780001E0
780001E0
380003C0
3C0003C0
1C000780
1E000780
0F000F00
07803E00
03F0FC00
00FFF000
001F8000
00000000
00000000
000F0000
000F0000
000F0000
00060000
ENDCHAR
STARTCHAR 2021
ENCODING 8225
SWIDTH 745 0
DWIDTH 29 0
BBX 27 44 1 -1
BITMAP
00002000
001C2000
003FE000
006FC000
00400000
00000000
000F0000
000F0000
001F8000
0039C000
00204000
00402000
00000000
00000000
000F8000
00FFF000
03F9F800
07C03E00
0F000F00
1E000780
1C000780
3C0003C0
380003C0
780001E0
780001E0
780001E0
700001E0
F00001E0
F00001E0
F00000E0
F00001E0
700001E0
780001E0
780001E0
780001E0
380003C0
3C0003C0
1C000780
1E000780
0F000F00
07803E00
03F0FC00
00FFF000
001F8000
ENDCHAR
STARTCHAR 2022
ENCODING 8226
SWIDTH 591 0
DWIDTH 23 0
BBX 22 42 1 0
BITMAP
007080
01FF80
01FF00
030000
000000
003800
007C00
006E00
00C600
018300
010180
000000
000000
000000
FFFFF8
7FFFF8
3E0078
3C0018
3C0008
3C0000
3C0000
3C0000
3C0000
3C0000
3C0040
3C01C0
3FFFC0
3FFFC0
3C0040
3C0000
3C0000
3C0000
3C0000
3C0000
3C0000
3C0000
3C0000
3C0004
3C001C
3E007C
7FFFFC
FFFFFC
ENDCHAR
STARTCHAR 2026
ENCODING 8230
SWIDTH 642 0
DWIDTH 25 0
BBX 26 44 0 0
BITMAP
00007800
0000CC00
00008400
00000400
00000C00
00001800
00003000
001E2000
003E2000
003F0000
00638000
00C18000
00804000
00000000
00000000
00080000
001C0000
001E0000
003E0000
003F0000
00770000
00678000
00E78000
00E3C000
01C3C000
01C1E000
0181E000
0380E000
0300F000
0700F000
07007800
06007800
0FFFF800
0FFFFC00
1C003C00
1C001C00
18001E00
38001E00
38000E00
38000F00
78000F00
78000F00
FC001F80
FC003FC0
ENDCHAR
STARTCHAR 2030
ENCODING 8240
SWIDTH 591 0
DWIDTH 23 0
BBX 24 42 1 0
BITMAP
000007
00000F
00001E
000038
000070
0038C0
007D80
006E00
00C600
018300
010180
000000
000000
000000
FFFFF8
7FFFF8
3E0078
3C0018
3C0008
3C0000
3C0000
3C0000
3C0000
3C0000
3C0040
3C01C0
3FFFC0
3FFFC0
3C0040
3C0000
3C0000
3C0000
3C0000
3C0000
3C0000
3C0000
3C0000
3C0004
3C001C
3E007C
7FFFFC
FFFFFC
ENDCHAR
STARTCHAR 2039
ENCODING 8249
SWIDTH 591 0
DWIDTH 23 0
BBX 22 44 1 0
BITMAP
000070
000088
000188
000008
000008
000018
000060
003840
007C40
006E00
00C600
018300
010180
000000
000000
000000
FFFFF8
7FFFF8
3E0078
3C0018
3C0008
3C0000
3C0000
3C0000
3C0000
3C0000
3C0040
3C01C0
3FFFC0
3FFFC0
3C0040
3C0000
3C0000
3C0000
3C0000
3C0000
3C0000
3C0000
3C0000
3C0004
3C001C
3E007C
7FFFFC
FFFFFC
ENDCHAR
STARTCHAR 203A
ENCODING 8250
SWIDTH 642 0
DWIDTH 25 0
BBX 27 39 -1 1
BITMAP
001F0000
00188000
00008000
00008000
00010000
00060000
00040000
00040000
00000000
00000000
00000000
FF001FE0
7F000FC0
3E000780
1E000700
0E000700
0F000E00
07800C00
07801C00
03C01800
01E03000
01E07000
00F06000
0078C000
003DC000
003F8000
001F0000
000E0000
000E0000
000E0000
000E0000
000E0000
000E0000
000E0000
000E0000
000F0000
000F0000
003F8000
003FC000
ENDCHAR
STARTCHAR 20A3
ENCODING 8355
SWIDTH 874 0
DWIDTH 34 0
BBX 0 0 0 0
BITMAP
ENDCHAR
STARTCHAR 2122
ENCODING 8482
SWIDTH 745 0
DWIDTH 29 0
BBX 27 44 1 -1
BITMAP
00002000
001C2000
003FE000
006FC000
00400000
00000000
000F0000
000F0000
001F8000
0039C000
00204000
00402000
00000000
00000000
000F8000
00FFF000
03F9F800
07C03E00
0F000F00
1E000780
1C000780
3C0003C0
380003C0
780001E0
780001E0
780001E0
700001E0
F00001E0
F00001E0
F00000E0
F00001E0
700001E0
780001E0
780001E0
780001E0
380003C0
3C0003C0
1C000780
1E000780
0F000F00
07803E00
03F0FC00
00FFF000
001F8000
ENDCHAR
STARTCHAR 2202
ENCODING 8706
SWIDTH 488 0
DWIDTH 19 0
BBX 0 0 0 0
BITMAP
ENDCHAR
STARTCHAR 2206
ENCODING 8710
SWIDTH 565 0
DWIDTH 22 0
BBX 0 0 0 0
BITMAP
ENDCHAR
STARTCHAR 220F
ENCODING 8719
SWIDTH 771 0
DWIDTH 30 0
BBX 0 0 0 0
BITMAP
ENDCHAR
STARTCHAR 2211
ENCODING 8721
SWIDTH 694 0
DWIDTH 27 0
BBX 0 0 0 0
BITMAP
ENDCHAR
STARTCHAR 2212
ENCODING 8722
SWIDTH 822 0
DWIDTH 32 0
BBX 0 0 0 0
BITMAP
ENDCHAR
STARTCHAR 2215
ENCODING 8725
SWIDTH 154 0
DWIDTH 6 0
BBX 0 0 0 0
BITMAP
ENDCHAR
STARTCHAR 2219
ENCODING 8729
SWIDTH 257 0
DWIDTH 10 0
BBX 8 40 1 0
BITMAP
1C
22
21
01
03
06
0C
08
00
00
00
00
FF
7F
3C
1C
1C
1C
1C
1C
1C
1C
1C
1C
1C
1C
1C
1C
1C
1C
1C
1C
1C
1C
1C
1C
1C
3C
7F
FF
ENDCHAR
STARTCHAR 221A
ENCODING 8730
SWIDTH 617 0
DWIDTH 24 0
BBX 0 0 0 0
BITMAP
ENDCHAR
STARTCHAR 221E
ENCODING 8734
SWIDTH 822 0
DWIDTH 32 0
BBX 0 0 0 0
BITMAP
ENDCHAR
STARTCHAR 222B
ENCODING 8747
SWIDTH 488 0
DWIDTH 19 0
BBX 0 0 0 0
BITMAP
ENDCHAR
STARTCHAR 2248
ENCODING 8776
SWIDTH 822 0
DWIDTH 32 0
BBX 0 0 0 0
BITMAP
ENDCHAR
STARTCHAR 2260
ENCODING 8800
SWIDTH 822 0
DWIDTH 32 0
BBX 0 0 0 0
BITMAP
ENDCHAR
STARTCHAR 2264
ENCODING 8804
SWIDTH 822 0
DWIDTH 32 0
BBX 0 0 0 0
BITMAP
ENDCHAR
STARTCHAR 2265
ENCODING 8805
SWIDTH 822 0
DWIDTH 32 0
BBX 0 0 0 0
BITMAP
ENDCHAR
STARTCHAR 25CA
ENCODING 9674
SWIDTH 488 0
DWIDTH 19 0
BBX 0 0 0 0
BITMAP
ENDCHAR
STARTCHAR F000
ENCODING 61440
SWIDTH 771 0
DWIDTH 30 0
BBX 0 0 0 0
BITMAP
ENDCHAR
STARTCHAR F001
ENCODING 61441
SWIDTH 514 0
DWIDTH 20 0
BBX 0 0 0 0
BITMAP
ENDCHAR
STARTCHAR F002
ENCODING 61442
SWIDTH 514 0
DWIDTH 20 0
BBX 0 0 0 0
BITMAP
ENDCHAR
ENDFONT
